<?xml version="1.0"?>
<!DOCTYPE svg PUBLIC "-//W3C//DTD SVG 1.1//EN" "http://www.w3.org/Graphics/SVG/1.1/DTD/svg11.dtd">
<svg version='1.1' width='71px' height='10px' xmlns='http://www.w3.org/2000/svg' xmlns:xlink='http://www.w3.org/1999/xlink'>
	<g transform="translate(-238.475,-151.48)">
		<path d="M 238.853 159.55 Q 237.25 158.58 242.45 156.383 Q 247.613 154.187 252.343 154.547 Q 257.06 154.893 258.933 156.533 Q 260.807 158.137 261.513 159.347 Q 262.183 160.557 258.04 160.917 Q 253.897 161.263 250.18 161.303 Q 246.463 161.32 243.453 160.913 Q 240.443 160.47 238.853 159.55" fill="none" stroke-width="1" stroke-linejoin="round" stroke-linecap="round" stroke="#000000"/>
		<path d="M 238.853 159.55 Q 237.25 158.58 242.45 156.383 Q 247.613 154.187 252.343 154.547 Q 257.06 154.893 258.933 156.533 Q 260.807 158.137 261.513 159.347 Q 262.183 160.557 258.04 160.917 Q 253.897 161.263 250.18 161.303 Q 246.463 161.32 243.453 160.913 Q 240.443 160.47 238.853 159.55" fill="#FFFFFF" stroke-width="1" stroke-linejoin="round" stroke-linecap="round" stroke="#000000"/>
		<path d="M 249.35 157.05 Q 249.3 156.8 249.6 156.5 Q 251.5 155.65 251.7 155.7 Q 252.3 155.95 252.65 156.3 Q 253.3 156.4 253.4 156.85 Q 253.85 157.15 253.85 157.85 Q 254.35 158.5 254.35 159.3 Q 253.3 160.1 251.8 159.85 Q 251.2 159.8 251.25 159.05 Q 248.85 159.5 249.35 157.05" fill="#FFFFFF" stroke-width="1" stroke-linejoin="round" stroke-linecap="round" stroke="#000000"/>
		<path d="M 251.823 158.463 Q 252.277 158.417 252.423 158.053 Q 253.81 157.92 253.823 157.823 Q 253.983 158.02 254.07 158.217 Q 254.217 158.52 254.217 158.86 Q 253.433 159.353 252.293 159.117 Q 251.84 159.053 251.85 158.49 L 251.823 158.463" fill="#FFFFFF" stroke-width="1" stroke-linejoin="round" stroke-linecap="round" stroke="#000000"/>
		<path d="M 252.4 158.55 Q 253.95 158.85 253.45 157.4 Q 252.55 158.65 252.4 158.55" fill="#FFFFFF" stroke-width="1" stroke-linejoin="round" stroke-linecap="round" stroke="#000000"/>
		<path d="M 252.827 157.437 Q 253.023 157.483 253.077 157.447 Q 253.74 157.78 253.777 157.777 Q 253.867 157.88 253.93 157.983 Q 253.983 158.03 253.983 158.09 Q 253.667 158.047 253.157 157.833 Q 252.923 157.71 252.827 157.437" fill="#FFFFFF" stroke-width="1" stroke-linejoin="round" stroke-linecap="round" stroke="#000000"/>
		<path d="M 250.65 156.5 Q 250.6 156.05 251 155.8 Q 250.75 156.25 250.75 156.5 Q 250.7 156.5 250.65 156.5" fill="#FFFFFF" stroke-width="1" stroke-linejoin="round" stroke-linecap="round" stroke="#000000"/>
		<path d="M 249.35 157.05 Q 249.3 156.8 249.6 156.5 Q 251.1 155.7 251 155.8 Q 250.3 156.55 250.2 156.7 Q 249.75 156.75 249.35 157.05" fill="#FFFFFF" stroke-width="1" stroke-linejoin="round" stroke-linecap="round" stroke="#000000"/>
		<path d="M 251.1 157.55 Q 251.3 157.45 251.4 157.3 Q 251.5 157.95 251.2 157.95 L 251.15 157.9 Q 251.05 157.75 251.1 157.55" fill="#FFFFFF" stroke-width="1" stroke-linejoin="round" stroke-linecap="round" stroke="#000000"/>
		<path d="M 251.8 157.85 Q 251.95 157.8 252.1 157.65 Q 251.8 157.95 251.8 157.85" fill="#FFFFFF" stroke-width="1" stroke-linejoin="round" stroke-linecap="round" stroke="#000000"/>
		<path d="M 252.5 156.65 Q 252.7 156.65 252.95 156.65 Q 252.6 156.75 252.5 156.65" fill="#FFFFFF" stroke-width="1" stroke-linejoin="round" stroke-linecap="round" stroke="#000000"/>
		<path d="M 252.2 158.25 Q 252.3 158.25 252.45 158.2 Q 253.15 157.3 252.95 156.65 Q 253.95 158.85 252.4 158.55 Q 252.25 158.35 252.2 158.25" fill="#FFFFFF" stroke-width="1" stroke-linejoin="round" stroke-linecap="round" stroke="#000000"/>
		<path d="M 249.35 157.05 Q 249.75 156.75 250.2 156.7 Q 250.7 157.85 250.7 157.9 Q 251.1 158.2 251.15 158.35 Q 250.95 158.4 250.8 158.6 Q 250.7 158.75 250.4 158.75 Q 249.65 158.7 249.5 157.9 Q 249.45 157.5 249.35 157.05" fill="#FFFFFF" stroke-width="1" stroke-linejoin="round" stroke-linecap="round" stroke="#000000"/>
		<path d="M 249.35 157.05 Q 249.45 157.5 249.5 157.9 Q 250.95 158.4 251.15 158.35 Q 251.2 158.7 251.25 159.05 Q 248.85 159.5 249.35 157.05" fill="#FFFFFF" stroke-width="1" stroke-linejoin="round" stroke-linecap="round" stroke="#000000"/>
		<path d="M 287.653 157.823 Q 288.537 154.9 289.93 153.05 Q 291.273 151.15 298.637 151.55 Q 306 151.95 309.25 153.25 Q 304.853 157.697 300.77 158.597 Q 296.687 159.51 294.17 159.31 Q 291.627 159.097 289.18 159.903 Q 286.733 160.71 287.653 157.823" fill="none" stroke-width="1" stroke-linejoin="round" stroke-linecap="round" stroke="#000000"/>
		<path d="M 287.653 157.823 Q 288.537 154.9 289.93 153.05 Q 291.273 151.15 298.637 151.55 Q 306 151.95 309.25 153.25 Q 304.853 157.697 300.77 158.597 Q 296.687 159.51 294.17 159.31 Q 291.627 159.097 289.18 159.903 Q 286.733 160.71 287.653 157.823" fill="#FFFFFF" stroke-width="1" stroke-linejoin="round" stroke-linecap="round" stroke="#000000"/>
		<path d="M 293.7 155.1 Q 293.85 155 294 154.85 Q 295.7 154.7 295.95 154.7 Q 296.55 154.55 296.8 154.55 Q 297.5 155.6 297.05 156.55 Q 296.95 156.7 296.8 156.85 Q 296.7 157 296.45 157 Q 296.35 157.1 296.25 157.2 Q 296.05 157.8 295.1 157.7 Q 294.85 157.65 294.65 157.55 Q 293.25 157.2 293.7 155.1" fill="#FFFFFF" stroke-width="1" stroke-linejoin="round" stroke-linecap="round" stroke="#000000"/>
		<path d="M 295.55 154.75 Q 295.7 154.7 295.95 154.7 Q 297.5 155.6 297.05 156.55 Q 296.8 154.95 295.8 154.95 Q 295.65 154.85 295.55 154.75" fill="#FFFFFF" stroke-width="1" stroke-linejoin="round" stroke-linecap="round" stroke="#000000"/>
		<path d="M 295.8 154.95 Q 296 155.15 296.2 155.4 Q 296.8 154.95 295.8 154.95" fill="#FFFFFF" stroke-width="1" stroke-linejoin="round" stroke-linecap="round" stroke="#000000"/>
		<path d="M 295.55 155 Q 295.6 154.95 295.65 154.95 Q 296.6 156.05 296.65 156.15 Q 295.85 155.2 295.55 155" fill="#FFFFFF" stroke-width="1" stroke-linejoin="round" stroke-linecap="round" stroke="#000000"/>
		<path d="M 296.05 155.6 Q 296.05 155.65 296.1 155.7 Q 296.5 156.55 296.6 156.25 Q 296.55 155.7 296.05 155.6" fill="#FFFFFF" stroke-width="1" stroke-linejoin="round" stroke-linecap="round" stroke="#000000"/>
		<path d="M 294.5 155.9 Q 294.7 155.7 295.1 155.6 Q 296.3 156.9 296.3 156.95 Q 295.9 157.05 295.6 157.05 Q 295.1 157 294.85 156.85 Q 294.5 156.15 294.5 155.9" fill="#FFFFFF" stroke-width="1" stroke-linejoin="round" stroke-linecap="round" stroke="#000000"/>
		<path d="M 295.1 155.6 Q 295.25 155.55 295.4 155.55 Q 296.3 156.65 296.35 156.8 Q 295.9 156.8 295.5 156.4 Q 295.05 155.95 295.1 155.6" fill="#FFFFFF" stroke-width="1" stroke-linejoin="round" stroke-linecap="round" stroke="#000000"/>
		<path d="M 294.55 156.5 Q 294.65 156.7 294.85 156.85 Q 296.3 157.05 296.3 157.1 Q 294.75 157.65 294.55 156.5" fill="#FFFFFF" stroke-width="1" stroke-linejoin="round" stroke-linecap="round" stroke="#000000"/>
		<path d="M 294.5 155.9 Q 294.55 155.15 295.2 154.85 Q 294.7 155.7 294.5 155.9" fill="#FFFFFF" stroke-width="1" stroke-linejoin="round" stroke-linecap="round" stroke="#000000"/>
		<path d="M 294.2 154.95 Q 294.2 154.8 294.25 154.7 Q 294.75 154.75 294.2 154.95" fill="#FFFFFF" stroke-width="1" stroke-linejoin="round" stroke-linecap="round" stroke="#000000"/>
		<path d="M 294.067 154.99 Q 294.427 154.853 294.713 154.84 Q 294.323 156.14 294.323 156.163 Q 294.073 155.45 294.067 154.99" fill="#FFFFFF" stroke-width="1" stroke-linejoin="round" stroke-linecap="round" stroke="#000000"/>
		<path d="M 293.833 155.06 Q 294.123 154.947 294.387 154.91 Q 294.277 156.21 294.277 156.187 Q 294.027 155.413 293.833 155.06" fill="#FFFFFF" stroke-width="1" stroke-linejoin="round" stroke-linecap="round" stroke="#000000"/>
		<path d="M 293.7 155.1 Q 294 155.4 294.1 155.95 Q 293.25 157.2 293.7 155.1" fill="#FFFFFF" stroke-width="1" stroke-linejoin="round" stroke-linecap="round" stroke="#000000"/>
		<path d="M 294.25 156.8 Q 294.25 156.5 294.3 156.3 Q 295.85 157.65 295.4 157.65 Q 294.3 157.35 294.25 156.8" fill="#FFFFFF" stroke-width="1" stroke-linejoin="round" stroke-linecap="round" stroke="#000000"/>
		<path d="M 294.65 157.55 Q 295 157.65 295.4 157.65 Q 294.85 157.65 294.65 157.55" fill="#FFFFFF" stroke-width="1" stroke-linejoin="round" stroke-linecap="round" stroke="#000000"/>
	</g>
</svg>
