<?xml version="1.0"?>
<!DOCTYPE svg PUBLIC "-//W3C//DTD SVG 1.1//EN" "http://www.w3.org/Graphics/SVG/1.1/DTD/svg11.dtd">
<svg version='1.1' width='225px' height='203px' xmlns='http://www.w3.org/2000/svg' xmlns:xlink='http://www.w3.org/1999/xlink'>
	<g transform="translate(-167.525,-205.725)">
		<path d="M 359 378.55 Q 326.272 408.117 279.925 408.125 Q 233.571 408.117 200.775 378.55 Q 168.032 349 168.025 307.175 Q 168.032 265.337 200.775 235.775 Q 233.571 206.22 279.925 206.225 Q 326.272 206.22 359 235.775 Q 391.798 265.337 391.8 307.175 Q 391.798 349 359 378.55 Z" fill="#FFFFCC"/>
		<path d="M 359 378.55 Q 326.272 408.117 279.925 408.125 Q 233.571 408.117 200.775 378.55 Q 168.032 349 168.025 307.175 Q 168.032 265.337 200.775 235.775 Q 233.571 206.22 279.925 206.225 Q 326.272 206.22 359 235.775 Q 391.798 265.337 391.8 307.175 Q 391.798 349 359 378.55 Z" fill="none" stroke-width="1" stroke-linejoin="round" stroke-linecap="round" stroke="#000000"/>
	</g>
</svg>
