<?xml version="1.0"?>
<!DOCTYPE svg PUBLIC "-//W3C//DTD SVG 1.1//EN" "http://www.w3.org/Graphics/SVG/1.1/DTD/svg11.dtd">
<svg version='1.1' width='63px' height='120px' xmlns='http://www.w3.org/2000/svg' xmlns:xlink='http://www.w3.org/1999/xlink'>
	<g transform="translate(-362.725,-250.025)">
	<g transform="translate(-1.15,2.25)">
			<path d="M 390.525 360 Q 390.117 360.085 389.7 360.125 Q 384.834 360.739 378.825 357.275 Q 377.602 356.569 377.275 355.675 Q 376.944 354.778 377.475 353.475 Q 378.565 350.883 380.075 349.375 Q 380.606 349.396 381.1 349.325 Q 382.566 349.057 383.675 349.7 Q 388.6 352.744 391.55 349.475 Q 384.217 345.313 380.075 349.375 Q 377.019 349.407 372.975 347 Q 371.752 346.307 371.425 345.425 Q 371.093 344.515 371.625 343.2 Q 372.132 341.898 372.825 341 Q 372.222 340.636 371.6 340.225 Q 369.043 338.495 370.375 335.075 Q 371.085 333.115 371.875 331.125 Q 376.545 318.344 389.7 324.075 Q 393.85 325.872 393.5 329.95 Q 393.439 330.66 395.375 331.425 Q 400.736 333.67 403.15 326.05 Q 405.231 319.406 403.2 315.225 Q 401.938 312.596 401 309.85 Q 399.067 304.581 393.725 302.575 Q 390.536 301.346 388.925 298.9 Q 388.234 297.918 387.3 297.025 Q 386.687 296.462 386.075 295.9 Q 384.512 294.637 382.95 293.375 Q 382.306 292.873 382.475 292.075 Q 383.376 287.372 380.85 285.25 Q 376.269 281.964 373.575 282.725 Q 372.497 282.969 371.25 283 Q 369.41 283.075 367.625 283.175 Q 365.96 283.232 364.375 283.45 L 374.275 248.275 Q 380.988 250.956 387.675 253.725 Q 393.943 256.323 396.25 261.925 Q 396.828 263.322 398.1 264.1 Q 403.95 267.982 406.3 272.725 Q 406.944 274.105 408.175 274.95 Q 408.21 274.968 408.25 274.975 Q 409.049 275.597 409.75 276.3 Q 412.967 279.424 414.475 284.275 Q 415.318 287.094 416.7 289.625 Q 419.179 294.416 419.85 300.05 Q 419.986 301.339 421.15 302.3 Q 423.867 304.574 421.75 308.975 Q 421.448 309.634 421.7 310.55 Q 423.104 317.076 425.25 321.725 Q 425.774 323.047 425.675 324.55 Q 424.731 333.946 418.725 341.05 Q 417.467 342.619 416.625 344.45 Q 413.129 351.92 409.05 359.05 Q 408.661 359.739 408.05 360.325 Q 400.452 367.511 392.6 366.425 Q 385.83 365.476 389.725 360.875 Q 389.91 360.672 390.1 360.475 Q 390.309 360.234 390.525 360 Q 394.588 359.168 397.825 355.4 Q 396.929 355.731 395.975 355.9 Q 394.451 356.136 393.625 356.9 Q 391.975 358.398 390.525 360 Z M 372.825 341 Q 379.968 345.201 384.55 341.625 Q 383.272 341.027 382.075 340.4 Q 375.759 337.124 372.825 341 Z" fill="#FFFFCC"/>
			<path d="M 372.825 341 Q 372.222 340.636 371.6 340.225 Q 369.043 338.495 370.375 335.075 Q 371.085 333.115 371.875 331.125 Q 376.545 318.344 389.7 324.075 Q 393.85 325.872 393.5 329.95 Q 393.439 330.66 395.375 331.425 Q 400.736 333.67 403.15 326.05 Q 405.231 319.406 403.2 315.225 Q 401.938 312.596 401 309.85 Q 399.067 304.581 393.725 302.575 Q 390.536 301.346 388.925 298.9 Q 388.234 297.918 387.3 297.025 Q 386.687 296.462 386.075 295.9 Q 384.512 294.637 382.95 293.375 Q 382.306 292.873 382.475 292.075 Q 383.376 287.372 380.85 285.25 Q 376.269 281.964 373.575 282.725 Q 372.497 282.969 371.25 283 Q 369.41 283.075 367.625 283.175 Q 365.96 283.232 364.375 283.45 L 374.275 248.275 Q 380.988 250.956 387.675 253.725 Q 393.943 256.323 396.25 261.925 Q 396.828 263.322 398.1 264.1 Q 403.95 267.982 406.3 272.725 Q 406.944 274.105 408.175 274.95 Q 408.21 274.968 408.25 274.975 Q 409.049 275.597 409.75 276.3 Q 412.967 279.424 414.475 284.275 Q 415.318 287.094 416.7 289.625 Q 419.179 294.416 419.85 300.05 Q 419.986 301.339 421.15 302.3 Q 423.867 304.574 421.75 308.975 Q 421.448 309.634 421.7 310.55 Q 423.104 317.076 425.25 321.725 Q 425.774 323.047 425.675 324.55 Q 424.731 333.946 418.725 341.05 Q 417.467 342.619 416.625 344.45 Q 413.129 351.92 409.05 359.05 Q 408.661 359.739 408.05 360.325 Q 400.452 367.511 392.6 366.425 Q 385.83 365.476 389.725 360.875 Q 389.91 360.672 390.1 360.475 Q 390.309 360.234 390.525 360 Q 391.975 358.398 393.625 356.9 Q 394.451 356.136 395.975 355.9 Q 396.929 355.731 397.825 355.4 Q 394.588 359.168 390.525 360 Q 390.117 360.085 389.7 360.125 Q 384.834 360.739 378.825 357.275 Q 377.602 356.569 377.275 355.675 Q 376.944 354.778 377.475 353.475 Q 378.565 350.883 380.075 349.375 Q 380.606 349.396 381.1 349.325 Q 382.566 349.057 383.675 349.7 Q 388.6 352.744 391.55 349.475 Q 384.217 345.313 380.075 349.375 Q 377.019 349.407 372.975 347 Q 371.752 346.307 371.425 345.425 Q 371.093 344.515 371.625 343.2 Q 372.132 341.898 372.825 341 Q 375.759 337.124 382.075 340.4 Q 383.272 341.027 384.55 341.625 Q 379.968 345.201 372.825 341 Z" fill="none" stroke-width="1" stroke-linejoin="round" stroke-linecap="round" stroke="#000000"/>
	</g>
	</g>
</svg>
