<?xml version="1.0"?>
<!DOCTYPE svg PUBLIC "-//W3C//DTD SVG 1.1//EN" "http://www.w3.org/Graphics/SVG/1.1/DTD/svg11.dtd">
<svg version='1.1' width='91px' height='102px' xmlns='http://www.w3.org/2000/svg' xmlns:xlink='http://www.w3.org/1999/xlink'>
	<g transform="translate(-116.203,-239.13)">
	<g transform="translate(1.1,-5.6)">
			<path d="M 147.275 334.675 Q 147.701 334.946 148.2 335.15 Q 146.158 329.723 137.75 330.4 Q 139.033 334.618 144.775 333.95 Q 146.055 333.824 147.275 334.675 Z M 150.15 326.175 Q 148.805 326.243 147.4 326.25 Q 150.046 331.433 158.3 330.65 Q 157.269 325.887 150.15 326.175 Z M 129.575 333.15 Q 130.917 337.918 134.25 340.375 Q 133.613 338.308 132.75 336.25 Q 132.315 335.221 131.025 334.375 Q 130.239 333.824 129.575 333.15 Z M 117.35 293.375 Q 117.906 291.974 118.95 291 Q 122.851 287.708 126.875 282.4 Q 127.493 281.662 127.5 280.925 Q 127.434 276.04 130.85 275.125 Q 132.309 274.754 132.975 273.65 Q 135.971 268.824 140.25 265.525 Q 142.571 263.819 144.525 261.625 Q 148.739 256.984 154.175 255.825 Q 155.64 255.579 156.8 254.6 Q 160.958 251.308 167.925 250.275 Q 169.383 250.09 170.475 249.05 Q 174.939 244.951 181.725 245.25 Q 193.535 245.782 205.3 246.55 L 190.125 281.975 Q 188.866 281.161 187.475 280.45 Q 185.88 279.587 184.225 278.725 Q 183.128 278.174 182.275 277.5 Q 180.135 275.677 174.575 276.725 Q 171.405 277.569 170.25 282.2 Q 170.068 282.993 169.275 283.175 Q 167.312 283.675 165.35 284.175 Q 164.562 284.413 163.775 284.65 Q 162.546 285.083 161.5 285.7 Q 158.995 287.223 155.575 286.975 Q 149.895 286.551 145.925 290.525 Q 143.91 292.597 141.65 294.425 Q 138.056 297.353 137.15 304.25 Q 136.105 312.197 141.9 312.45 Q 143.979 312.572 144.225 311.9 Q 145.63 308.053 150.15 308.175 Q 164.506 308.542 163.35 322.1 Q 163.218 324.23 163.025 326.3 Q 162.779 329.963 159.725 330.45 Q 158.994 330.568 158.3 330.65 Q 158.545 331.757 158.45 333.15 Q 158.393 334.554 157.725 335.225 Q 157.054 335.9 155.65 336.025 Q 150.962 336.484 148.2 335.15 Q 148.92 337.16 148.8 339.975 Q 148.743 341.379 148.075 342.05 Q 147.404 342.725 146 342.85 Q 139.096 343.457 134.95 340.85 Q 134.586 340.631 134.25 340.375 Q 134.342 340.686 134.425 341 Q 134.504 341.249 134.575 341.5 Q 136.161 347.308 129.625 345.3 Q 122.049 342.982 118.2 333.275 Q 117.903 332.475 117.85 331.675 Q 117.177 323.493 117.175 315.25 Q 117.169 313.232 116.675 311.275 Q 114.234 302.294 117.35 293.375 Z" fill="#FFFFCC"/>
			<path d="M 117.35 293.375 Q 114.234 302.294 116.675 311.275 Q 117.169 313.232 117.175 315.25 Q 117.177 323.493 117.85 331.675 Q 117.903 332.475 118.2 333.275 Q 122.049 342.982 129.625 345.3 Q 136.161 347.308 134.575 341.5 Q 134.504 341.249 134.425 341 Q 134.342 340.686 134.25 340.375 Q 134.586 340.631 134.95 340.85 Q 139.096 343.457 146 342.85 Q 147.404 342.725 148.075 342.05 Q 148.743 341.379 148.8 339.975 Q 148.92 337.16 148.2 335.15 Q 150.962 336.484 155.65 336.025 Q 157.054 335.9 157.725 335.225 Q 158.393 334.554 158.45 333.15 Q 158.545 331.757 158.3 330.65 Q 158.994 330.568 159.725 330.45 Q 162.779 329.963 163.025 326.3 Q 163.218 324.23 163.35 322.1 Q 164.506 308.542 150.15 308.175 Q 145.63 308.053 144.225 311.9 Q 143.979 312.572 141.9 312.45 Q 136.105 312.197 137.15 304.25 Q 138.056 297.353 141.65 294.425 Q 143.91 292.597 145.925 290.525 Q 149.895 286.551 155.575 286.975 Q 158.995 287.223 161.5 285.7 Q 162.546 285.083 163.775 284.65 Q 164.562 284.413 165.35 284.175 Q 167.312 283.675 169.275 283.175 Q 170.068 282.993 170.25 282.2 Q 171.405 277.569 174.575 276.725 Q 180.135 275.677 182.275 277.5 Q 183.128 278.174 184.225 278.725 Q 185.88 279.587 187.475 280.45 Q 188.866 281.161 190.125 281.975 L 205.3 246.55 Q 193.535 245.782 181.725 245.25 Q 174.939 244.951 170.475 249.05 Q 169.383 250.09 167.925 250.275 Q 160.958 251.308 156.8 254.6 Q 155.64 255.579 154.175 255.825 Q 148.739 256.984 144.525 261.625 Q 142.571 263.819 140.25 265.525 Q 135.971 268.824 132.975 273.65 Q 132.309 274.754 130.85 275.125 Q 127.434 276.04 127.5 280.925 Q 127.493 281.662 126.875 282.4 Q 122.851 287.708 118.95 291 Q 117.906 291.974 117.35 293.375 Z M 129.575 333.15 Q 130.239 333.824 131.025 334.375 Q 132.315 335.221 132.75 336.25 Q 133.613 338.308 134.25 340.375 Q 130.917 337.918 129.575 333.15 Z M 150.15 326.175 Q 157.269 325.887 158.3 330.65 Q 150.046 331.433 147.4 326.25 Q 148.805 326.243 150.15 326.175 Z M 147.275 334.675 Q 146.055 333.824 144.775 333.95 Q 139.033 334.618 137.75 330.4 Q 146.158 329.723 148.2 335.15 Q 147.701 334.946 147.275 334.675 Z" fill="none" stroke-width="1" stroke-linejoin="round" stroke-linecap="round" stroke="#000000"/>
	</g>
	</g>
</svg>
