<?xml version="1.0"?>
<!DOCTYPE svg PUBLIC "-//W3C//DTD SVG 1.1//EN" "http://www.w3.org/Graphics/SVG/1.1/DTD/svg11.dtd">
<svg version='1.1' width='76px' height='12px' xmlns='http://www.w3.org/2000/svg' xmlns:xlink='http://www.w3.org/1999/xlink'>
	<g transform="translate(-236.167,-151.48)">
		<path d="M 236.18 158 Q 235.94 155.34 240.02 154.26 Q 244.06 153.14 249.93 153.08 Q 255.79 153.01 256.85 155.08 Q 257.87 157.11 259.67 160.3 Q 261.43 163.49 258.46 163.05 Q 255.49 162.6 250.54 162.83 Q 245.55 163.07 240.98 161.86 Q 236.41 160.65 236.18 158" fill="none" stroke-width="1" stroke-linejoin="round" stroke-linecap="round" stroke="#000000"/>
		<path d="M 236.18 158 Q 235.94 155.34 240.02 154.26 Q 244.06 153.14 249.93 153.08 Q 255.79 153.01 256.85 155.08 Q 257.87 157.11 259.67 160.3 Q 261.43 163.49 258.46 163.05 Q 255.49 162.6 250.54 162.83 Q 245.55 163.07 240.98 161.86 Q 236.41 160.65 236.18 158" fill="#FFFFFF" stroke-width="1" stroke-linejoin="round" stroke-linecap="round" stroke="#000000"/>
		<path d="M 249.35 157.05 Q 249.3 156.8 249.6 156.5 Q 251.5 155.65 251.7 155.7 Q 252.3 155.95 252.65 156.3 Q 253.3 156.4 253.4 156.85 Q 253.85 157.15 253.85 157.85 Q 254.35 158.5 254.35 159.3 Q 253.3 160.1 251.8 159.85 Q 251.2 159.8 251.25 159.05 Q 248.85 159.5 249.35 157.05" fill="#FFFFFF" stroke-width="1" stroke-linejoin="round" stroke-linecap="round" stroke="#000000"/>
		<path d="M 251.25 159.05 Q 251.85 158.95 252.05 158.4 Q 253.85 158 253.85 157.85 Q 254.35 158.5 254.35 159.3 Q 253.3 160.1 251.8 159.85 Q 251.2 159.8 251.25 159.05" fill="#FFFFFF" stroke-width="1" stroke-linejoin="round" stroke-linecap="round" stroke="#000000"/>
		<path d="M 252.4 158.55 Q 253.95 158.85 253.45 157.4 Q 252.55 158.65 252.4 158.55" fill="#FFFFFF" stroke-width="1" stroke-linejoin="round" stroke-linecap="round" stroke="#000000"/>
		<path d="M 253.4 156.85 Q 253.45 157.05 253.45 157.4 Q 253.85 157.15 253.4 156.85" fill="#FFFFFF" stroke-width="1" stroke-linejoin="round" stroke-linecap="round" stroke="#000000"/>
		<path d="M 250.65 156.5 Q 250.6 156.05 251 155.8 Q 250.75 156.25 250.75 156.5 Q 250.7 156.5 250.65 156.5" fill="#FFFFFF" stroke-width="1" stroke-linejoin="round" stroke-linecap="round" stroke="#000000"/>
		<path d="M 249.35 157.05 Q 249.3 156.8 249.6 156.5 Q 251.1 155.7 251 155.8 Q 250.3 156.55 250.2 156.7 Q 249.75 156.75 249.35 157.05" fill="#FFFFFF" stroke-width="1" stroke-linejoin="round" stroke-linecap="round" stroke="#000000"/>
		<path d="M 251.1 157.55 Q 251.3 157.45 251.4 157.3 Q 251.5 157.95 251.2 157.95 L 251.15 157.9 Q 251.05 157.75 251.1 157.55" fill="#FFFFFF" stroke-width="1" stroke-linejoin="round" stroke-linecap="round" stroke="#000000"/>
		<path d="M 251.8 157.85 Q 251.95 157.8 252.1 157.65 Q 251.8 157.95 251.8 157.85" fill="#FFFFFF" stroke-width="1" stroke-linejoin="round" stroke-linecap="round" stroke="#000000"/>
		<path d="M 252.5 156.65 Q 252.7 156.65 252.95 156.65 Q 252.6 156.75 252.5 156.65" fill="#FFFFFF" stroke-width="1" stroke-linejoin="round" stroke-linecap="round" stroke="#000000"/>
		<path d="M 252.2 158.25 Q 252.3 158.25 252.45 158.2 Q 253.15 157.3 252.95 156.65 Q 253.95 158.85 252.4 158.55 Q 252.25 158.35 252.2 158.25" fill="#FFFFFF" stroke-width="1" stroke-linejoin="round" stroke-linecap="round" stroke="#000000"/>
		<path d="M 249.35 157.05 Q 249.75 156.75 250.2 156.7 Q 250.7 157.85 250.7 157.9 Q 251.1 158.2 251.15 158.35 Q 250.95 158.4 250.8 158.6 Q 250.7 158.75 250.4 158.75 Q 249.65 158.7 249.5 157.9 Q 249.45 157.5 249.35 157.05" fill="#FFFFFF" stroke-width="1" stroke-linejoin="round" stroke-linecap="round" stroke="#000000"/>
		<path d="M 249.35 157.05 Q 249.45 157.5 249.5 157.9 Q 250.95 158.4 251.15 158.35 Q 251.2 158.7 251.25 159.05 Q 248.85 159.5 249.35 157.05" fill="#FFFFFF" stroke-width="1" stroke-linejoin="round" stroke-linecap="round" stroke="#000000"/>
		<path d="M 285.05 158.85 Q 285.75 154.9 288.5 153.05 Q 291.2 151.15 298.6 151.55 Q 306 151.95 309.25 153.25 Q 312.45 154.5 310.88 155.95 Q 309.27 157.36 307 159.76 Q 304.69 162.13 298.37 162.58 Q 291.99 162.98 288.19 162.91 Q 284.35 162.8 285.05 158.85" fill="none" stroke-width="1" stroke-linejoin="round" stroke-linecap="round" stroke="#000000"/>
		<path d="M 285.05 158.85 Q 285.75 154.9 288.5 153.05 Q 291.2 151.15 298.6 151.55 Q 306 151.95 309.25 153.25 Q 312.45 154.5 310.88 155.95 Q 309.27 157.36 307 159.76 Q 304.69 162.13 298.37 162.58 Q 291.99 162.98 288.19 162.91 Q 284.35 162.8 285.05 158.85" fill="#FFFFFF" stroke-width="1" stroke-linejoin="round" stroke-linecap="round" stroke="#000000"/>
		<path d="M 293.7 155.1 Q 293.85 155 294 154.85 Q 295.7 154.7 295.95 154.7 Q 296.55 154.55 296.8 154.55 Q 297.5 155.6 297.05 156.55 Q 296.95 156.7 296.8 156.85 Q 296.7 157 296.45 157 Q 296.35 157.1 296.25 157.2 Q 296.05 157.8 295.1 157.7 Q 294.85 157.65 294.65 157.55 Q 293.25 157.2 293.7 155.1" fill="#FFFFFF" stroke-width="1" stroke-linejoin="round" stroke-linecap="round" stroke="#000000"/>
		<path d="M 295.55 154.75 Q 295.7 154.7 295.95 154.7 Q 297.5 155.6 297.05 156.55 Q 296.8 154.95 295.8 154.95 Q 295.65 154.85 295.55 154.75" fill="#FFFFFF" stroke-width="1" stroke-linejoin="round" stroke-linecap="round" stroke="#000000"/>
		<path d="M 295.8 154.95 Q 296 155.15 296.2 155.4 Q 296.8 154.95 295.8 154.95" fill="#FFFFFF" stroke-width="1" stroke-linejoin="round" stroke-linecap="round" stroke="#000000"/>
		<path d="M 295.55 155 Q 295.6 154.95 295.65 154.95 Q 296.6 156.05 296.65 156.15 Q 295.85 155.2 295.55 155" fill="#FFFFFF" stroke-width="1" stroke-linejoin="round" stroke-linecap="round" stroke="#000000"/>
		<path d="M 294.81 155.84 Q 294.85 155.81 294.9 155.78 Q 296.06 156.77 296.35 156.8 Q 296.03 156.95 295.8 156.91 Q 295.76 156.9 295.72 156.89 Q 295.4 156.82 295.19 156.68 Q 295.02 156.54 294.93 156.36 Q 294.87 156.05 294.81 155.84" fill="#FFFFFF" stroke-width="1" stroke-linejoin="round" stroke-linecap="round" stroke="#000000"/>
		<path d="M 295.74 155.66 Q 295.75 155.69 295.8 155.72 Q 296.24 156.68 296.35 156.8 Q 296.42 156.65 296.4 156.49 Q 296.39 156.45 296.38 156.41 Q 296.3 156.28 296.21 156.17 Q 296.13 156.06 296.07 155.94 Q 295.98 155.79 295.82 155.66 L 295.74 155.66" fill="#FFFFFF" stroke-width="1" stroke-linejoin="round" stroke-linecap="round" stroke="#000000"/>
		<path d="M 295.1 155.6 Q 295.25 155.55 295.4 155.55 Q 296.3 156.65 296.35 156.8 Q 295.9 156.8 295.5 156.4 Q 295.05 155.95 295.1 155.6" fill="#FFFFFF" stroke-width="1" stroke-linejoin="round" stroke-linecap="round" stroke="#000000"/>
		<path d="M 294.55 156.5 Q 294.65 156.7 294.85 156.85 Q 296.3 157.05 296.3 157.1 Q 294.75 157.65 294.55 156.5" fill="#FFFFFF" stroke-width="1" stroke-linejoin="round" stroke-linecap="round" stroke="#000000"/>
		<path d="M 294.5 155.9 Q 294.55 155.15 295.2 154.85 Q 294.7 155.7 294.5 155.9" fill="#FFFFFF" stroke-width="1" stroke-linejoin="round" stroke-linecap="round" stroke="#000000"/>
		<path d="M 294.2 154.95 Q 294.2 154.8 294.25 154.7 Q 294.75 154.75 294.2 154.95" fill="#FFFFFF" stroke-width="1" stroke-linejoin="round" stroke-linecap="round" stroke="#000000"/>
		<path d="M 293.8 155.07 Q 294.08 154.96 294.34 154.92 Q 294.27 156.22 294.27 156.19 Q 294.02 155.45 293.8 155.07" fill="#FFFFFF" stroke-width="1" stroke-linejoin="round" stroke-linecap="round" stroke="#000000"/>
		<path d="M 293.7 155.1 Q 293.99 155.32 294.12 155.75 Q 294.27 157.11 294.54 157.23 Q 293.4 156.84 293.7 155.1" fill="#FFFFFF" stroke-width="1" stroke-linejoin="round" stroke-linecap="round" stroke="#000000"/>
		<path d="M 294.1 154.98 Q 294.44 154.96 294.7 155.03 Q 294.66 155.59 294.61 155.87 Q 294.32 156.25 294.25 156.33 Q 293.92 155.72 294.1 154.98" fill="#FFFFFF" stroke-width="1" stroke-linejoin="round" stroke-linecap="round" stroke="#000000"/>
		<path d="M 294.25 156.8 Q 294.25 156.5 294.3 156.3 Q 295.85 157.65 295.4 157.65 Q 294.3 157.35 294.25 156.8" fill="#FFFFFF" stroke-width="1" stroke-linejoin="round" stroke-linecap="round" stroke="#000000"/>
		<path d="M 294.65 157.55 Q 295 157.65 295.4 157.65 Q 294.85 157.65 294.65 157.55" fill="#FFFFFF" stroke-width="1" stroke-linejoin="round" stroke-linecap="round" stroke="#000000"/>
	</g>
</svg>
