<?xml version="1.0"?>
<!DOCTYPE svg PUBLIC "-//W3C//DTD SVG 1.1//EN" "http://www.w3.org/Graphics/SVG/1.1/DTD/svg11.dtd">
<svg version='1.1' width='130px' height='130px' xmlns='http://www.w3.org/2000/svg' xmlns:xlink='http://www.w3.org/1999/xlink'>
	<g transform="translate(-211.5,-116.6)">
		<path d="M 230.825 135.925 Q 249.634 117.107 276.2 117.1 Q 302.766 117.107 321.575 135.925 Q 340.38 154.734 340.375 181.3 Q 340.38 207.866 321.575 226.675 Q 302.766 245.48 276.2 245.475 Q 249.634 245.48 230.825 226.675 Q 212.007 207.866 212 181.3 Q 212.007 154.734 230.825 135.925 Z" fill="#FFFFCC"/>
		<path d="M 230.825 135.925 Q 249.634 117.107 276.2 117.1 Q 302.766 117.107 321.575 135.925 Q 340.38 154.734 340.375 181.3 Q 340.38 207.866 321.575 226.675 Q 302.766 245.48 276.2 245.475 Q 249.634 245.48 230.825 226.675 Q 212.007 207.866 212 181.3 Q 212.007 154.734 230.825 135.925 Z" fill="none" stroke-width="1" stroke-linejoin="round" stroke-linecap="round" stroke="#000000"/>
	</g>
</svg>
