<?xml version="1.0"?>
<!DOCTYPE svg PUBLIC "-//W3C//DTD SVG 1.1//EN" "http://www.w3.org/Graphics/SVG/1.1/DTD/svg11.dtd">
<svg version='1.1' width='91px' height='102px' xmlns='http://www.w3.org/2000/svg' xmlns:xlink='http://www.w3.org/1999/xlink'>
	<g transform="translate(-113.951,-240.226)">
	<g transform="translate(-1.2,0.1) scale(0.999985,0.999985)">
			<path d="M 147.325 330.075 Q 147.751 330.346 148.25 330.55 Q 146.208 325.123 137.8 325.8 Q 139.083 330.018 144.825 329.35 Q 146.105 329.224 147.325 330.075 Z M 129.625 328.55 Q 130.967 333.318 134.3 335.775 Q 133.662 333.708 132.8 331.65 Q 132.365 330.621 131.075 329.775 Q 130.289 329.224 129.625 328.55 Z M 150.2 321.575 Q 148.855 321.643 147.45 321.65 Q 150.096 326.833 158.35 326.05 Q 157.319 321.287 150.2 321.575 Z M 117.4 288.775 Q 117.956 287.374 119 286.4 Q 122.901 283.108 126.925 277.8 Q 127.543 277.062 127.55 276.325 Q 127.484 271.44 130.9 270.525 Q 132.359 270.154 133.025 269.05 Q 136.021 264.224 140.3 260.925 Q 142.621 259.219 144.575 257.025 Q 148.789 252.384 154.225 251.225 Q 155.69 250.979 156.85 250 Q 161.008 246.708 167.975 245.675 Q 169.433 245.49 170.525 244.45 Q 174.99 240.351 181.775 240.65 Q 193.585 241.182 205.35 241.95 L 190.175 277.375 Q 188.916 276.561 187.525 275.85 Q 185.93 274.988 184.275 274.125 Q 183.178 273.574 182.325 272.9 Q 180.185 271.077 174.625 272.125 Q 171.455 272.969 170.3 277.6 Q 170.118 278.393 169.325 278.575 Q 167.362 279.075 165.4 279.575 Q 164.613 279.812 163.825 280.05 Q 162.596 280.483 161.55 281.1 Q 159.045 282.623 155.625 282.375 Q 149.945 281.951 145.975 285.925 Q 143.96 287.997 141.7 289.825 Q 138.106 292.753 137.2 299.65 Q 136.155 307.597 141.95 307.85 Q 144.029 307.972 144.275 307.3 Q 145.68 303.453 150.2 303.575 Q 164.556 303.942 163.4 317.5 Q 163.268 319.63 163.075 321.7 Q 162.829 325.363 159.775 325.85 Q 159.044 325.968 158.35 326.05 Q 158.595 327.157 158.5 328.55 Q 158.443 329.954 157.775 330.625 Q 157.104 331.3 155.7 331.425 Q 151.012 331.884 148.25 330.55 Q 148.97 332.56 148.85 335.375 Q 148.793 336.779 148.125 337.45 Q 147.454 338.125 146.05 338.25 Q 139.146 338.857 135 336.25 Q 134.636 336.031 134.3 335.775 Q 134.392 336.086 134.475 336.4 Q 134.554 336.649 134.625 336.9 Q 136.211 342.709 129.675 340.7 Q 122.1 338.382 118.25 328.675 Q 117.953 327.875 117.9 327.075 Q 117.227 318.893 117.225 310.65 Q 117.219 308.632 116.725 306.675 Q 114.284 297.694 117.4 288.775 Z" fill="#FFFFCC"/>
			<path d="M 117.4 288.775 Q 114.284 297.694 116.725 306.675 Q 117.219 308.632 117.225 310.65 Q 117.227 318.893 117.9 327.075 Q 117.953 327.875 118.25 328.675 Q 122.1 338.382 129.675 340.7 Q 136.211 342.709 134.625 336.9 Q 134.554 336.649 134.475 336.4 Q 134.392 336.086 134.3 335.775 Q 134.636 336.031 135 336.25 Q 139.146 338.857 146.05 338.25 Q 147.454 338.125 148.125 337.45 Q 148.793 336.779 148.85 335.375 Q 148.97 332.56 148.25 330.55 Q 151.012 331.884 155.7 331.425 Q 157.104 331.3 157.775 330.625 Q 158.443 329.954 158.5 328.55 Q 158.595 327.157 158.35 326.05 Q 159.044 325.968 159.775 325.85 Q 162.829 325.363 163.075 321.7 Q 163.268 319.63 163.4 317.5 Q 164.556 303.942 150.2 303.575 Q 145.68 303.453 144.275 307.3 Q 144.029 307.972 141.95 307.85 Q 136.155 307.597 137.2 299.65 Q 138.106 292.753 141.7 289.825 Q 143.96 287.997 145.975 285.925 Q 149.945 281.951 155.625 282.375 Q 159.045 282.623 161.55 281.1 Q 162.596 280.483 163.825 280.05 Q 164.613 279.812 165.4 279.575 Q 167.362 279.075 169.325 278.575 Q 170.118 278.393 170.3 277.6 Q 171.455 272.969 174.625 272.125 Q 180.185 271.077 182.325 272.9 Q 183.178 273.574 184.275 274.125 Q 185.93 274.988 187.525 275.85 Q 188.916 276.561 190.175 277.375 L 205.35 241.95 Q 193.585 241.182 181.775 240.65 Q 174.99 240.351 170.525 244.45 Q 169.433 245.49 167.975 245.675 Q 161.008 246.708 156.85 250 Q 155.69 250.979 154.225 251.225 Q 148.789 252.384 144.575 257.025 Q 142.621 259.219 140.3 260.925 Q 136.021 264.224 133.025 269.05 Q 132.359 270.154 130.9 270.525 Q 127.484 271.44 127.55 276.325 Q 127.543 277.062 126.925 277.8 Q 122.901 283.108 119 286.4 Q 117.956 287.374 117.4 288.775 Z M 150.2 321.575 Q 157.319 321.287 158.35 326.05 Q 150.096 326.833 147.45 321.65 Q 148.855 321.643 150.2 321.575 Z M 129.625 328.55 Q 130.289 329.224 131.075 329.775 Q 132.365 330.621 132.8 331.65 Q 133.662 333.708 134.3 335.775 Q 130.967 333.318 129.625 328.55 Z M 147.325 330.075 Q 146.105 329.224 144.825 329.35 Q 139.083 330.018 137.8 325.8 Q 146.208 325.123 148.25 330.55 Q 147.751 330.346 147.325 330.075 Z" fill="none" stroke-width="1" stroke-linejoin="round" stroke-linecap="round" stroke="#000000"/>
	</g>
	</g>
</svg>
