<?xml version="1.0"?>
<!DOCTYPE svg PUBLIC "-//W3C//DTD SVG 1.1//EN" "http://www.w3.org/Graphics/SVG/1.1/DTD/svg11.dtd">
<svg version='1.1' width='76px' height='13px' xmlns='http://www.w3.org/2000/svg' xmlns:xlink='http://www.w3.org/1999/xlink'>
	<g transform="translate(-235.814,-150.983)">
		<path d="M 237.875 154.575 Q 241.107 153.288 248.5 152.9 Q 255.897 152.51 258.625 154.375 Q 261.34 156.247 262.05 160.2 Q 262.765 164.147 259.35 162.5 Q 255.931 160.865 252.075 161.625 Q 248.228 162.375 244.9 160.35 Q 241.564 158.33 238.1 157.1 Q 234.644 155.862 237.875 154.575 Z M 252.4 158.55 Q 253.95 158.85 253.45 157.4 Q 253.667 157.605 253.825 157.825 Q 254.35 158.503 254.35 159.3 Q 253.3 160.1 251.8 159.85 Q 251.2 159.8 251.25 159.05 Q 251.868 158.947 252.05 158.4 Q 252.167 158.511 252.4 158.55 Q 252.55 158.65 252.95 158.65 Q 253.7 158.75 253.8 158.2 Q 253.83 157.998 253.825 157.825 Q 253.838 157.126 253.4 156.825 Q 253.468 157.062 253.45 157.4 Q 253.1 157.1 252.95 156.65 Q 253.147 157.312 253.025 157.7 Q 252.991 157.671 252.95 157.65 Q 252.904 157.237 252.65 157.025 Q 252.623 156.734 252.475 156.65 L 252.425 156.65 Q 252.65 156.615 252.95 156.65 Q 252.702 156.636 252.475 156.65 Q 252.702 156.636 252.95 156.65 Q 252.65 156.615 252.425 156.65 L 252.475 156.65 Q 252.623 156.734 252.65 157.025 Q 252.904 157.237 252.95 157.65 Q 252.991 157.671 253.025 157.7 Q 253.147 157.312 252.95 156.65 Q 253.1 157.1 253.45 157.4 Q 253.468 157.062 253.4 156.825 Q 253.838 157.126 253.825 157.825 Q 253.83 157.998 253.8 158.2 Q 253.7 158.75 252.95 158.65 Q 252.55 158.65 252.4 158.55 Q 252.167 158.511 252.05 158.4 Q 251.868 158.947 251.25 159.05 Q 251.2 159.8 251.8 159.85 Q 253.3 160.1 254.35 159.3 Q 254.35 158.503 253.825 157.825 Q 253.667 157.605 253.45 157.4 Q 253.95 158.85 252.4 158.55 Q 252.244 158.369 252.175 158.25 Q 252.3 158.23 252.425 158.175 Q 252.692 158.124 252.85 157.975 Q 252.969 157.867 253.025 157.7 Q 253.222 157.821 253.05 157.95 Q 252.988 158.012 252.85 157.975 Q 252.803 157.965 252.75 157.95 Q 252.702 157.926 252.65 157.9 Q 252.596 157.941 252.55 157.975 Q 252.596 157.941 252.65 157.9 Q 252.702 157.926 252.75 157.95 Q 252.803 157.965 252.85 157.975 Q 252.988 158.012 253.05 157.95 Q 253.222 157.821 253.025 157.7 Q 252.969 157.867 252.85 157.975 Q 252.692 158.124 252.425 158.175 Q 252.3 158.23 252.175 158.25 Q 252.244 158.369 252.4 158.55 Z M 252.95 156.65 Q 253.222 156.702 253.4 156.825 Q 253.304 156.414 252.95 156.35 Q 252.799 156.315 252.65 156.3 Q 252.311 155.927 251.9 155.775 Q 251.856 155.706 251.8 155.65 Q 251.745 155.683 251.7 155.7 Q 251.476 155.65 251.25 155.65 Q 251.086 155.713 250.975 155.8 Q 250.479 156.102 250.45 156.525 Q 250.298 156.571 250.175 156.675 Q 249.743 156.769 249.35 157.05 Q 249.3 156.8 249.6 156.5 Q 250.2 155.85 251.25 155.65 Q 251.31 155.666 251.35 155.7 Q 251.53 155.753 251.7 155.7 Q 251.806 155.726 251.9 155.775 Q 252.094 155.986 252.25 156.25 Q 251.889 156.242 251.625 156.35 Q 251.621 155.848 251.35 155.7 Q 251.621 155.848 251.625 156.35 Q 251.889 156.242 252.25 156.25 Q 252.094 155.986 251.9 155.775 Q 251.806 155.726 251.7 155.7 Q 251.53 155.753 251.35 155.7 Q 251.31 155.666 251.25 155.65 Q 250.2 155.85 249.6 156.5 Q 249.3 156.8 249.35 157.05 Q 249.743 156.769 250.175 156.675 Q 250.298 156.571 250.45 156.525 Q 250.479 156.102 250.975 155.8 Q 251.086 155.713 251.25 155.65 Q 251.476 155.65 251.7 155.7 Q 251.745 155.683 251.8 155.65 Q 251.856 155.706 251.9 155.775 Q 252.311 155.927 252.65 156.3 Q 252.799 156.315 252.95 156.35 Q 253.304 156.414 253.4 156.825 Q 253.222 156.702 252.95 156.65 Q 252.811 156.451 252.65 156.3 Q 252.432 156.262 252.25 156.25 Q 252.345 156.44 252.425 156.65 Q 252.345 156.44 252.25 156.25 Q 252.432 156.262 252.65 156.3 Q 252.811 156.451 252.95 156.65 Z M 251.5 156.6 L 251.55 156.6 L 251.55 156.625 Q 251.526 156.606 251.5 156.6 Q 251.45 156.65 251.4 156.7 Q 251.319 156.678 251.25 156.65 Q 251.288 156.596 251.325 156.55 Q 251.414 156.571 251.5 156.6 Q 251.414 156.571 251.325 156.55 Q 251.288 156.596 251.25 156.65 Q 251.319 156.678 251.4 156.7 Q 251.45 156.65 251.5 156.6 Q 251.526 156.606 251.55 156.625 L 251.55 156.6 Z M 251.25 156.65 Q 250.99 156.607 250.75 156.6 Q 250.746 156.543 250.75 156.475 Q 250.755 156.272 250.85 156 Q 251.396 156.027 251.525 156.4 Q 251.411 156.463 251.325 156.55 Q 251.01 156.462 250.75 156.475 Q 250.698 156.477 250.65 156.475 L 250.65 156.5 Q 250.65 156.552 250.65 156.6 Q 250.702 156.599 250.75 156.6 Q 250.702 156.599 250.65 156.6 Q 250.65 156.552 250.65 156.5 L 250.65 156.475 Q 250.698 156.477 250.75 156.475 Q 251.01 156.462 251.325 156.55 Q 251.411 156.463 251.525 156.4 Q 251.396 156.027 250.85 156 Q 250.755 156.272 250.75 156.475 Q 250.746 156.543 250.75 156.6 Q 250.99 156.607 251.25 156.65 Q 251.162 156.772 251.1 156.925 Q 251.088 156.967 251.075 157 Q 251.036 156.994 251 156.975 Q 250.909 157.026 250.825 157.075 Q 250.749 157.118 250.675 157.175 Q 250.479 156.871 250.45 156.625 Q 250.551 156.602 250.65 156.6 Q 250.675 156.897 250.825 157.075 Q 250.903 157.156 251 157.2 Q 250.916 157.288 250.85 157.4 Q 250.921 157.468 251 157.55 Q 250.869 157.583 250.75 157.6 Q 250.791 157.488 250.85 157.4 Q 250.749 157.279 250.675 157.175 Q 250.421 157.329 250.2 157.55 Q 249.924 157.418 249.85 157.05 Q 249.981 156.803 250.175 156.675 Q 249.981 156.803 249.85 157.05 Q 249.924 157.418 250.2 157.55 Q 250.421 157.329 250.675 157.175 Q 250.749 157.279 250.85 157.4 Q 250.791 157.488 250.75 157.6 Q 250.869 157.583 251 157.55 Q 250.921 157.468 250.85 157.4 Q 250.916 157.288 251 157.2 Q 250.903 157.156 250.825 157.075 Q 250.675 156.897 250.65 156.6 Q 250.551 156.602 250.45 156.625 Q 250.479 156.871 250.675 157.175 Q 250.749 157.118 250.825 157.075 Q 250.909 157.026 251 156.975 Q 251.036 156.994 251.075 157 Q 251.088 156.967 251.1 156.925 Q 251.162 156.772 251.25 156.65 Z M 251.05 157.15 Q 251.062 157.078 251.075 157 Q 251.134 157.033 251.2 157.05 Q 251.318 157.059 251.475 157.05 Q 251.498 156.963 251.5 156.875 Q 251.337 156.957 251.2 157.05 Q 251.161 157.158 251.125 157.25 Q 251.083 157.238 251.05 157.225 Q 251.054 157.187 251.05 157.15 Q 251.127 157.099 251.2 157.05 Q 251.221 156.971 251.25 156.9 L 251.275 156.85 Q 251.19 156.886 251.1 156.925 Q 251.054 156.949 251 156.975 Q 250.776 156.873 250.75 156.6 Q 250.776 156.873 251 156.975 Q 251.054 156.949 251.1 156.925 Q 251.19 156.886 251.275 156.85 L 251.25 156.9 Q 251.221 156.971 251.2 157.05 Q 251.127 157.099 251.05 157.15 Q 251.054 157.187 251.05 157.225 Q 251.083 157.238 251.125 157.25 Q 251.161 157.158 251.2 157.05 Q 251.337 156.957 251.5 156.875 Q 251.498 156.963 251.475 157.05 Q 251.318 157.059 251.2 157.05 Q 251.134 157.033 251.075 157 Q 251.062 157.078 251.05 157.15 Q 251.029 157.175 251 157.2 L 251.05 157.225 Q 251.026 157.372 251.025 157.55 Q 251.053 157.537 251.075 157.525 Q 251.086 157.405 251.125 157.25 Q 251.253 157.29 251.4 157.3 Q 251.446 157.171 251.475 157.05 Q 251.513 157.053 251.55 157.05 Q 251.571 156.948 251.575 156.85 Q 251.543 156.862 251.5 156.875 Q 251.521 156.828 251.525 156.775 L 251.525 156.725 Q 251.467 156.708 251.4 156.7 Q 251.319 156.788 251.275 156.85 Q 251.397 156.812 251.525 156.775 Q 251.567 156.759 251.6 156.75 Q 251.613 156.699 251.625 156.65 Q 251.59 156.629 251.55 156.625 Q 251.546 156.671 251.525 156.725 Q 251.567 156.739 251.6 156.75 Q 251.594 156.799 251.575 156.85 Q 251.667 156.825 251.75 156.8 Q 251.675 156.772 251.6 156.75 Q 251.675 156.772 251.75 156.8 Q 251.667 156.825 251.575 156.85 Q 251.594 156.799 251.6 156.75 Q 251.567 156.739 251.525 156.725 Q 251.546 156.671 251.55 156.625 Q 251.59 156.629 251.625 156.65 Q 251.613 156.699 251.6 156.75 Q 251.567 156.759 251.525 156.775 Q 251.397 156.812 251.275 156.85 Q 251.319 156.788 251.4 156.7 Q 251.467 156.708 251.525 156.725 L 251.525 156.775 Q 251.521 156.828 251.5 156.875 Q 251.543 156.862 251.575 156.85 Q 251.571 156.948 251.55 157.05 Q 251.513 157.053 251.475 157.05 Q 251.446 157.171 251.4 157.3 Q 251.253 157.29 251.125 157.25 Q 251.086 157.405 251.075 157.525 Q 251.053 157.537 251.025 157.55 Q 251.026 157.372 251.05 157.225 L 251 157.2 Q 251.029 157.175 251.05 157.15 Z M 252.55 156.95 Q 252.598 156.982 252.65 157.025 L 252.65 157.05 Q 252.7 157.35 252.95 157.65 Q 252.802 157.546 252.675 157.5 Q 252.67 157.424 252.65 157.35 Q 252.602 157.139 252.55 156.95 Q 252.487 156.793 252.425 156.65 Q 252.19 156.686 252.025 156.8 Q 251.899 156.793 251.75 156.8 Q 251.801 156.902 251.85 157 Q 251.881 156.948 251.925 156.9 Q 251.98 156.948 252 157.05 Q 252.101 157.453 252.125 157.775 Q 252.132 157.92 252.125 158.05 L 252.1 158.05 Q 252.1 158.079 252.1 158.125 L 252.1 158.15 Q 252.002 158.182 251.9 158.2 Q 251.872 158.144 251.85 158.075 Q 252.015 158.05 252.1 158.05 Q 252.1 157.89 252.125 157.775 Q 252.213 157.276 252.675 157.5 Q 252.732 157.833 252.55 157.975 L 252.5 158 Q 252.373 158.064 252.125 158.05 Q 252.119 158.084 252.1 158.125 Q 252.119 158.084 252.125 158.05 Q 252.373 158.064 252.5 158 L 252.55 157.975 Q 252.732 157.833 252.675 157.5 Q 252.213 157.276 252.125 157.775 Q 252.1 157.89 252.1 158.05 Q 252.015 158.05 251.85 158.075 Q 251.872 158.144 251.9 158.2 Q 252.002 158.182 252.1 158.15 L 252.1 158.125 Q 252.1 158.079 252.1 158.05 L 252.125 158.05 Q 252.132 157.92 252.125 157.775 Q 252.101 157.453 252 157.05 Q 251.98 156.948 251.925 156.9 Q 251.881 156.948 251.85 157 Q 251.801 156.902 251.75 156.8 Q 251.899 156.793 252.025 156.8 Q 252.19 156.686 252.425 156.65 Q 252.487 156.793 252.55 156.95 Q 252.602 157.139 252.65 157.35 Q 252.67 157.424 252.675 157.5 Q 252.802 157.546 252.95 157.65 Q 252.7 157.35 252.65 157.05 L 252.65 157.025 Q 252.598 156.982 252.55 156.95 Q 252.337 156.829 252.025 156.8 Q 251.973 156.846 251.925 156.9 Q 251.973 156.846 252.025 156.8 Q 252.337 156.829 252.55 156.95 Z M 251.6 156.75 Q 251.664 156.739 251.725 156.725 Q 251.679 156.681 251.625 156.65 L 251.625 156.625 Q 251.585 156.615 251.55 156.6 Q 251.545 156.491 251.525 156.4 Q 251.568 156.373 251.625 156.35 Q 251.638 156.474 251.625 156.625 Q 251.685 156.672 251.725 156.725 Q 251.849 156.7 251.975 156.675 Q 251.873 156.728 251.75 156.8 Q 251.738 156.765 251.725 156.725 Q 251.738 156.765 251.75 156.8 Q 251.873 156.728 251.975 156.675 Q 251.849 156.7 251.725 156.725 Q 251.685 156.672 251.625 156.625 Q 251.638 156.474 251.625 156.35 Q 251.568 156.373 251.525 156.4 Q 251.545 156.491 251.55 156.6 Q 251.585 156.615 251.625 156.625 L 251.625 156.65 Q 251.679 156.681 251.725 156.725 Q 251.664 156.739 251.6 156.75 Z M 251 157.55 Q 251 157.643 251.025 157.725 Q 251.026 157.634 251.025 157.55 L 251 157.55 L 251.025 157.55 Q 251.026 157.634 251.025 157.725 Q 251 157.643 251 157.55 Z M 251.85 158.075 Q 251.808 157.97 251.775 157.85 Q 251.953 157.776 252.1 157.65 Q 251.988 157.314 251.85 157 Q 251.715 157.243 251.75 157.65 Q 251.762 157.754 251.775 157.85 Q 251.508 157.957 251.175 157.925 L 251.15 157.9 Q 251.065 157.746 251.075 157.525 Q 251.314 157.472 251.4 157.3 Q 251.55 157.1 251.55 157.05 Q 251.55 157.1 251.4 157.3 Q 251.314 157.472 251.075 157.525 Q 251.065 157.746 251.15 157.9 L 251.175 157.925 Q 251.508 157.957 251.775 157.85 Q 251.762 157.754 251.75 157.65 Q 251.715 157.243 251.85 157 Q 251.988 157.314 252.1 157.65 Q 251.953 157.776 251.775 157.85 Q 251.808 157.97 251.85 158.075 Q 251.723 158.107 251.55 158.15 Q 251.495 158.157 251.45 158.175 Q 251.267 158.141 251.075 158.075 Q 251.064 157.986 251.05 157.9 Q 251.101 157.917 251.15 157.925 L 251.15 157.9 Q 251.07 157.82 251.025 157.725 Q 251.039 157.809 251.05 157.9 Q 250.885 157.871 250.7 157.8 Q 250.469 157.707 250.2 157.55 Q 250.416 157.645 250.75 157.6 Q 250.416 157.645 250.2 157.55 Q 250.469 157.707 250.7 157.8 Q 250.885 157.871 251.05 157.9 Q 251.039 157.809 251.025 157.725 Q 251.07 157.82 251.15 157.9 L 251.15 157.925 Q 251.101 157.917 251.05 157.9 Q 251.064 157.986 251.075 158.075 Q 251.267 158.141 251.45 158.175 Q 251.495 158.157 251.55 158.15 Q 251.723 158.107 251.85 158.075 Z M 251.975 156.675 Q 252.195 156.649 252.425 156.65 Q 252.195 156.649 251.975 156.675 Z M 250.975 155.8 Q 250.62 156.045 250.65 156.475 Q 250.55 156.489 250.45 156.525 Q 250.449 156.569 250.45 156.625 Q 250.312 156.634 250.175 156.675 Q 250.312 156.634 250.45 156.625 Q 250.449 156.569 250.45 156.525 Q 250.55 156.489 250.65 156.475 Q 250.62 156.045 250.975 155.8 Z M 251.925 156.9 Q 251.869 156.8 251.75 156.8 Q 251.869 156.8 251.925 156.9 Z M 251.25 159.05 Q 248.85 159.5 249.35 157.05 Q 249.45 157.5 249.5 157.9 Q 249.65 158.7 250.4 158.75 Q 250.7 158.75 250.8 158.6 Q 250.954 158.424 251.125 158.325 Q 251.185 158.694 251.25 159.05 Q 251.185 158.694 251.125 158.325 Q 250.954 158.424 250.8 158.6 Q 250.7 158.75 250.4 158.75 Q 249.65 158.7 249.5 157.9 Q 249.45 157.5 249.35 157.05 Q 248.85 159.5 251.25 159.05 Z M 252.05 158.4 Q 252.082 158.336 252.1 158.25 Q 252.014 158.252 251.925 158.25 Q 251.827 158.228 251.725 158.2 Q 251.782 158.204 251.85 158.2 L 251.9 158.2 Q 251.91 158.223 251.925 158.25 Q 251.96 158.299 252 158.35 Q 252.022 158.384 252.05 158.4 Q 252.022 158.384 252 158.35 Q 251.96 158.299 251.925 158.25 Q 251.91 158.223 251.9 158.2 L 251.85 158.2 Q 251.782 158.204 251.725 158.2 Q 251.827 158.228 251.925 158.25 Q 252.014 158.252 252.1 158.25 Q 252.082 158.336 252.05 158.4 Z M 252.175 158.25 L 252.15 158.2 L 252.1 158.2 L 252.1 158.15 Q 252.125 158.171 252.15 158.2 Q 252.296 158.204 252.425 158.175 Q 252.603 158.103 252.75 157.95 Q 252.859 157.822 252.95 157.65 Q 252.808 157.792 252.65 157.9 Q 252.808 157.792 252.95 157.65 Q 252.859 157.822 252.75 157.95 Q 252.603 158.103 252.425 158.175 Q 252.296 158.204 252.15 158.2 Q 252.125 158.171 252.1 158.15 Q 252.313 158.099 252.5 158 Q 252.313 158.099 252.1 158.15 L 252.1 158.2 L 252.15 158.2 L 252.175 158.25 Q 252.133 158.249 252.1 158.25 Q 252.096 158.225 252.1 158.2 Q 252.004 158.21 251.9 158.2 Q 252.004 158.21 252.1 158.2 Q 252.096 158.225 252.1 158.25 Q 252.133 158.249 252.175 158.25 Z M 251.175 157.925 L 251.15 157.925 Q 251.278 158.096 251.55 158.15 Q 251.711 158.179 251.85 158.2 Q 251.711 158.179 251.55 158.15 Q 251.278 158.096 251.15 157.925 L 251.175 157.925 Q 251.3 158.059 251.55 158.15 Q 251.633 158.181 251.725 158.2 Q 251.585 158.197 251.45 158.175 Q 251.28 158.214 251.125 158.325 Q 251.28 158.214 251.45 158.175 Q 251.585 158.197 251.725 158.2 Q 251.633 158.181 251.55 158.15 Q 251.3 158.059 251.175 157.925 Z M 251.075 158.075 Q 250.892 158.003 250.7 157.9 Q 250.703 157.85 250.7 157.8 Q 250.718 157.695 250.75 157.6 Q 250.718 157.695 250.7 157.8 Q 250.703 157.85 250.7 157.9 Q 250.892 158.003 251.075 158.075 Q 251.101 158.198 251.125 158.325 Q 251.101 158.198 251.075 158.075 Z M 309.225 153.225 Q 312.456 154.512 309 155.75 Q 305.536 156.98 302.2 159 Q 298.872 161.025 295.025 160.275 Q 291.169 159.515 287.75 161.15 Q 284.335 162.797 285.05 158.85 Q 285.76 154.897 288.475 153.025 Q 291.203 151.16 298.6 151.55 Q 305.993 151.938 309.225 153.225 Z M 295.525 154.75 Q 295.721 154.713 295.95 154.7 Q 296.1 154.7 296.3 154.65 Q 296.55 154.55 296.8 154.55 Q 297.52 155.608 297.025 156.525 Q 296.906 156.617 296.8 156.675 Q 296.777 156.582 296.75 156.5 Q 296.683 156.333 296.625 156.15 Q 296.793 154.927 295.775 154.95 Q 295.651 154.832 295.525 154.75 Q 295.349 154.791 295.2 154.85 Q 294.763 154.734 294.175 154.925 Q 294.196 154.807 294.225 154.7 L 294.25 154.65 Q 294.3 154.55 294.55 154.575 Q 295.043 154.44 295.525 154.75 Q 295.043 154.44 294.55 154.575 Q 294.3 154.55 294.25 154.65 L 294.225 154.7 Q 294.196 154.807 294.175 154.925 Q 294.763 154.734 295.2 154.85 Q 295.349 154.791 295.525 154.75 Q 295.651 154.832 295.775 154.95 Q 296.793 154.927 296.625 156.15 Q 296.683 156.333 296.75 156.5 Q 296.777 156.582 296.8 156.675 Q 296.906 156.617 297.025 156.525 Q 297.52 155.608 296.8 154.55 Q 296.55 154.55 296.3 154.65 Q 296.1 154.7 295.95 154.7 Q 295.721 154.713 295.525 154.75 Z M 296.625 156.15 Q 296.61 156.196 296.6 156.25 Q 296.567 155.715 296.05 155.575 Q 295.841 155.204 295.55 155 Q 295.603 154.974 295.65 154.95 Q 295.715 154.945 295.775 154.95 Q 295.989 155.131 296.2 155.4 Q 296.4 155.65 296.55 155.95 Q 296.583 156.05 296.625 156.15 Q 296.583 156.05 296.55 155.95 Q 296.4 155.65 296.2 155.4 Q 295.989 155.131 295.775 154.95 Q 295.715 154.945 295.65 154.95 Q 295.603 154.974 295.55 155 Q 295.841 155.204 296.05 155.575 Q 296.567 155.715 296.6 156.25 Q 296.61 156.196 296.625 156.15 Z M 296.55 156.775 Q 296.485 156.792 296.425 156.8 Q 296.369 156.806 296.325 156.8 Q 295.898 156.798 295.5 156.4 Q 295.037 155.966 295.075 155.6 Q 295.225 155.564 295.4 155.55 Q 295.781 155.517 296.05 155.575 Q 296.072 155.64 296.1 155.7 Q 296.25 156.1 296.3 156.5 Q 296.318 156.666 296.325 156.8 Q 296.31 156.882 296.3 156.95 L 296.35 156.95 Q 296.404 156.968 296.45 156.975 Q 296.386 156.992 296.325 157 Q 296.34 156.975 296.35 156.95 Q 296.387 156.876 296.425 156.8 Q 296.525 156.551 296.6 156.25 Q 296.617 156.557 296.55 156.775 Q 296.668 156.743 296.8 156.675 Q 296.8 156.759 296.8 156.85 Q 296.677 157.014 296.45 156.975 Q 296.509 156.887 296.55 156.775 Q 296.509 156.887 296.45 156.975 Q 296.677 157.014 296.8 156.85 Q 296.8 156.759 296.8 156.675 Q 296.668 156.743 296.55 156.775 Q 296.617 156.557 296.6 156.25 Q 296.525 156.551 296.425 156.8 Q 296.387 156.876 296.35 156.95 Q 296.34 156.975 296.325 157 Q 296.386 156.992 296.45 156.975 Q 296.404 156.968 296.35 156.95 L 296.3 156.95 Q 296.31 156.882 296.325 156.8 Q 296.318 156.666 296.3 156.5 Q 296.25 156.1 296.1 155.7 Q 296.072 155.64 296.05 155.575 Q 295.781 155.517 295.4 155.55 Q 295.225 155.564 295.075 155.6 Q 295.037 155.966 295.5 156.4 Q 295.898 156.798 296.325 156.8 Q 296.369 156.806 296.425 156.8 Q 296.485 156.792 296.55 156.775 Z M 297.025 156.525 Q 296.93 156.689 296.8 156.85 Q 296.93 156.689 297.025 156.525 Z M 296.45 156.975 Q 296.37 157.102 296.25 157.175 Q 296.119 157.264 295.95 157.3 Q 296.165 157.228 296.275 157.075 Q 296.284 157.045 296.3 157 L 296.325 157 Q 296.305 157.04 296.275 157.075 Q 296.262 157.132 296.25 157.175 Q 296.03 157.803 295.1 157.7 Q 294.842 157.668 294.65 157.55 Q 294.982 157.65 295.4 157.65 Q 295.85 157.65 295.95 157.3 Q 294.75 157.65 294.55 156.5 Q 294.389 156.399 294.275 156.3 Q 294.298 156.216 294.325 156.15 Q 294.032 155.542 294.175 154.925 Q 293.947 154.987 293.7 155.1 Q 293.252 157.177 294.65 157.55 Q 294.284 157.342 294.25 156.8 Q 294.225 156.512 294.275 156.3 Q 294.13 156.129 294.1 155.95 Q 294 155.4 293.7 155.1 Q 294 155.4 294.1 155.95 Q 294.13 156.129 294.275 156.3 Q 294.225 156.512 294.25 156.8 Q 294.284 157.342 294.65 157.55 Q 293.252 157.177 293.7 155.1 Q 293.947 154.987 294.175 154.925 Q 294.032 155.542 294.325 156.15 Q 294.298 156.216 294.275 156.3 Q 294.389 156.399 294.55 156.5 Q 294.75 157.65 295.95 157.3 Q 295.85 157.65 295.4 157.65 Q 294.982 157.65 294.65 157.55 Q 294.842 157.668 295.1 157.7 Q 296.03 157.803 296.25 157.175 Q 296.262 157.132 296.275 157.075 Q 296.305 157.04 296.325 157 L 296.3 157 Q 296.284 157.045 296.275 157.075 Q 296.165 157.228 295.95 157.3 Q 296.119 157.264 296.25 157.175 Q 296.37 157.102 296.45 156.975 Z M 296.3 157 Q 295.947 157.071 295.575 157.025 Q 295.894 157.033 296.3 156.95 L 296.3 157 L 296.3 156.95 Q 295.894 157.033 295.575 157.025 Q 295.947 157.071 296.3 157 Z M 294.5 155.9 Q 294.491 156.164 294.55 156.5 Q 294.422 156.322 294.325 156.15 Q 294.397 156.002 294.5 155.9 Q 294.56 155.135 295.2 154.85 Q 295.386 154.904 295.55 155 Q 295.479 155.047 295.4 155.1 Q 295.105 155.332 295.075 155.6 Q 294.716 155.683 294.5 155.9 Q 294.716 155.683 295.075 155.6 Q 295.105 155.332 295.4 155.1 Q 295.479 155.047 295.55 155 Q 295.386 154.904 295.2 154.85 Q 294.56 155.135 294.5 155.9 Q 294.397 156.002 294.325 156.15 Q 294.422 156.322 294.55 156.5 Q 294.491 156.164 294.5 155.9 Z M 293.7 155.1 Q 293.85 155 294 154.85 Q 294.117 154.759 294.225 154.7 Q 294.39 154.608 294.55 154.575 Q 294.39 154.608 294.225 154.7 Q 294.117 154.759 294 154.85 Q 293.85 155 293.7 155.1 Z M 295.575 157.025 Q 295.123 157.025 294.85 156.85 Q 294.653 156.721 294.55 156.5 Q 294.653 156.721 294.85 156.85 Q 295.123 157.025 295.575 157.025 Z" fill="#FFFFFF"/>
		<path d="M 237.875 154.575 Q 241.107 153.288 248.5 152.9 Q 255.897 152.51 258.625 154.375 Q 261.34 156.247 262.05 160.2 Q 262.765 164.147 259.35 162.5 Q 255.931 160.865 252.075 161.625 Q 248.228 162.375 244.9 160.35 Q 241.564 158.33 238.1 157.1 Q 234.644 155.862 237.875 154.575 Z M 252.4 158.55 Q 253.95 158.85 253.45 157.4 Q 253.667 157.605 253.825 157.825 Q 254.35 158.503 254.35 159.3 Q 253.3 160.1 251.8 159.85 Q 251.2 159.8 251.25 159.05 Q 251.868 158.947 252.05 158.4 Q 252.167 158.511 252.4 158.55 Q 252.55 158.65 252.95 158.65 Q 253.7 158.75 253.8 158.2 Q 253.83 157.998 253.825 157.825 Q 253.838 157.126 253.4 156.825 Q 253.468 157.062 253.45 157.4 Q 253.1 157.1 252.95 156.65 Q 253.147 157.312 253.025 157.7 Q 252.991 157.671 252.95 157.65 Q 252.904 157.237 252.65 157.025 Q 252.623 156.734 252.475 156.65 L 252.425 156.65 Q 252.65 156.615 252.95 156.65 Q 252.702 156.636 252.475 156.65 M 252.95 156.65 Q 253.222 156.702 253.4 156.825 Q 253.304 156.414 252.95 156.35 Q 252.799 156.315 252.65 156.3 Q 252.311 155.927 251.9 155.775 Q 251.856 155.706 251.8 155.65 Q 251.745 155.683 251.7 155.7 Q 251.476 155.65 251.25 155.65 Q 251.086 155.713 250.975 155.8 Q 250.479 156.102 250.45 156.525 Q 250.298 156.571 250.175 156.675 Q 249.743 156.769 249.35 157.05 Q 249.3 156.8 249.6 156.5 Q 250.2 155.85 251.25 155.65 Q 251.31 155.666 251.35 155.7 Q 251.53 155.753 251.7 155.7 Q 251.806 155.726 251.9 155.775 Q 252.094 155.986 252.25 156.25 Q 251.889 156.242 251.625 156.35 Q 251.621 155.848 251.35 155.7 M 251.5 156.6 L 251.55 156.6 L 251.55 156.625 Q 251.526 156.606 251.5 156.6 Q 251.45 156.65 251.4 156.7 Q 251.319 156.678 251.25 156.65 Q 251.288 156.596 251.325 156.55 Q 251.414 156.571 251.5 156.6 Z M 251.25 156.65 Q 250.99 156.607 250.75 156.6 Q 250.746 156.543 250.75 156.475 Q 250.755 156.272 250.85 156 Q 251.396 156.027 251.525 156.4 Q 251.411 156.463 251.325 156.55 Q 251.01 156.462 250.75 156.475 M 251.05 157.15 Q 251.062 157.078 251.075 157 Q 251.134 157.033 251.2 157.05 Q 251.318 157.059 251.475 157.05 Q 251.498 156.963 251.5 156.875 Q 251.337 156.957 251.2 157.05 Q 251.161 157.158 251.125 157.25 Q 251.083 157.238 251.05 157.225 Q 251.054 157.187 251.05 157.15 Q 251.127 157.099 251.2 157.05 Q 251.221 156.971 251.25 156.9 L 251.275 156.85 Q 251.19 156.886 251.1 156.925 Q 251.054 156.949 251 156.975 Q 250.776 156.873 250.75 156.6 Q 250.702 156.599 250.65 156.6 Q 250.65 156.552 250.65 156.5 L 250.65 156.475 Q 250.698 156.477 250.75 156.475 M 251.6 156.75 Q 251.675 156.772 251.75 156.8 Q 251.667 156.825 251.575 156.85 Q 251.594 156.799 251.6 156.75 Q 251.567 156.739 251.525 156.725 Q 251.546 156.671 251.55 156.625 Q 251.59 156.629 251.625 156.65 Q 251.613 156.699 251.6 156.75 Q 251.567 156.759 251.525 156.775 Q 251.397 156.812 251.275 156.85 Q 251.319 156.788 251.4 156.7 Q 251.467 156.708 251.525 156.725 L 251.525 156.775 Q 251.521 156.828 251.5 156.875 Q 251.543 156.862 251.575 156.85 Q 251.571 156.948 251.55 157.05 Q 251.513 157.053 251.475 157.05 Q 251.446 157.171 251.4 157.3 Q 251.253 157.29 251.125 157.25 Q 251.086 157.405 251.075 157.525 Q 251.053 157.537 251.025 157.55 Q 251.026 157.372 251.05 157.225 L 251 157.2 Q 251.029 157.175 251.05 157.15 M 252.55 156.95 Q 252.598 156.982 252.65 157.025 L 252.65 157.05 Q 252.7 157.35 252.95 157.65 Q 252.802 157.546 252.675 157.5 Q 252.67 157.424 252.65 157.35 Q 252.602 157.139 252.55 156.95 Q 252.487 156.793 252.425 156.65 Q 252.19 156.686 252.025 156.8 Q 251.899 156.793 251.75 156.8 Q 251.801 156.902 251.85 157 Q 251.881 156.948 251.925 156.9 Q 251.98 156.948 252 157.05 Q 252.101 157.453 252.125 157.775 Q 252.132 157.92 252.125 158.05 L 252.1 158.05 Q 252.1 158.079 252.1 158.125 L 252.1 158.15 Q 252.002 158.182 251.9 158.2 Q 251.872 158.144 251.85 158.075 Q 252.015 158.05 252.1 158.05 Q 252.1 157.89 252.125 157.775 Q 252.213 157.276 252.675 157.5 Q 252.732 157.833 252.55 157.975 L 252.5 158 Q 252.373 158.064 252.125 158.05 M 251.6 156.75 Q 251.664 156.739 251.725 156.725 Q 251.679 156.681 251.625 156.65 L 251.625 156.625 Q 251.585 156.615 251.55 156.6 Q 251.545 156.491 251.525 156.4 Q 251.568 156.373 251.625 156.35 Q 251.638 156.474 251.625 156.625 Q 251.685 156.672 251.725 156.725 Q 251.849 156.7 251.975 156.675 Q 251.873 156.728 251.75 156.8 Q 251.738 156.765 251.725 156.725 M 251.25 156.65 Q 251.162 156.772 251.1 156.925 Q 251.088 156.967 251.075 157 Q 251.036 156.994 251 156.975 Q 250.909 157.026 250.825 157.075 Q 250.749 157.118 250.675 157.175 Q 250.479 156.871 250.45 156.625 Q 250.551 156.602 250.65 156.6 Q 250.675 156.897 250.825 157.075 Q 250.903 157.156 251 157.2 Q 250.916 157.288 250.85 157.4 Q 250.921 157.468 251 157.55 Q 250.869 157.583 250.75 157.6 Q 250.791 157.488 250.85 157.4 Q 250.749 157.279 250.675 157.175 Q 250.421 157.329 250.2 157.55 Q 249.924 157.418 249.85 157.05 Q 249.981 156.803 250.175 156.675 M 251 157.55 Q 251 157.643 251.025 157.725 Q 251.026 157.634 251.025 157.55 Z M 251.85 158.075 Q 251.808 157.97 251.775 157.85 Q 251.953 157.776 252.1 157.65 Q 251.988 157.314 251.85 157 Q 251.715 157.243 251.75 157.65 Q 251.762 157.754 251.775 157.85 Q 251.508 157.957 251.175 157.925 L 251.15 157.9 Q 251.065 157.746 251.075 157.525 Q 251.314 157.472 251.4 157.3 Q 251.55 157.1 251.55 157.05 M 252.425 156.65 Q 252.345 156.44 252.25 156.25 Q 252.432 156.262 252.65 156.3 Q 252.811 156.451 252.95 156.65 M 251.975 156.675 Q 252.195 156.649 252.425 156.65 M 251.925 156.9 Q 251.973 156.846 252.025 156.8 Q 252.337 156.829 252.55 156.95 M 250.975 155.8 Q 250.62 156.045 250.65 156.475 Q 250.55 156.489 250.45 156.525 Q 250.449 156.569 250.45 156.625 Q 250.312 156.634 250.175 156.675 M 251.925 156.9 Q 251.869 156.8 251.75 156.8 M 251.25 159.05 Q 248.85 159.5 249.35 157.05 Q 249.45 157.5 249.5 157.9 Q 249.65 158.7 250.4 158.75 Q 250.7 158.75 250.8 158.6 Q 250.954 158.424 251.125 158.325 Q 251.185 158.694 251.25 159.05 Z M 252.4 158.55 Q 252.244 158.369 252.175 158.25 Q 252.3 158.23 252.425 158.175 Q 252.692 158.124 252.85 157.975 Q 252.969 157.867 253.025 157.7 Q 253.222 157.821 253.05 157.95 Q 252.988 158.012 252.85 157.975 Q 252.803 157.965 252.75 157.95 Q 252.702 157.926 252.65 157.9 Q 252.596 157.941 252.55 157.975 M 252.1 158.125 Q 252.119 158.084 252.125 158.05 M 252.05 158.4 Q 252.082 158.336 252.1 158.25 Q 252.014 158.252 251.925 158.25 Q 251.827 158.228 251.725 158.2 Q 251.782 158.204 251.85 158.2 L 251.9 158.2 Q 251.91 158.223 251.925 158.25 Q 251.96 158.299 252 158.35 Q 252.022 158.384 252.05 158.4 Z M 252.175 158.25 L 252.15 158.2 L 252.1 158.2 L 252.1 158.15 Q 252.125 158.171 252.15 158.2 Q 252.296 158.204 252.425 158.175 Q 252.603 158.103 252.75 157.95 Q 252.859 157.822 252.95 157.65 Q 252.808 157.792 252.65 157.9 M 251.9 158.2 Q 252.004 158.21 252.1 158.2 Q 252.096 158.225 252.1 158.25 Q 252.133 158.249 252.175 158.25 M 252.5 158 Q 252.313 158.099 252.1 158.15 M 251.175 157.925 L 251.15 157.925 Q 251.278 158.096 251.55 158.15 Q 251.711 158.179 251.85 158.2 M 251.85 158.075 Q 251.723 158.107 251.55 158.15 Q 251.495 158.157 251.45 158.175 Q 251.267 158.141 251.075 158.075 Q 251.064 157.986 251.05 157.9 Q 251.101 157.917 251.15 157.925 L 251.15 157.9 Q 251.07 157.82 251.025 157.725 Q 251.039 157.809 251.05 157.9 Q 250.885 157.871 250.7 157.8 Q 250.469 157.707 250.2 157.55 Q 250.416 157.645 250.75 157.6 M 251.125 158.325 Q 251.28 158.214 251.45 158.175 Q 251.585 158.197 251.725 158.2 Q 251.633 158.181 251.55 158.15 Q 251.3 158.059 251.175 157.925 M 251.075 158.075 Q 250.892 158.003 250.7 157.9 Q 250.703 157.85 250.7 157.8 Q 250.718 157.695 250.75 157.6 M 251.125 158.325 Q 251.101 158.198 251.075 158.075 M 309.225 153.225 Q 305.993 151.938 298.6 151.55 Q 291.203 151.16 288.475 153.025 Q 285.76 154.897 285.05 158.85 Q 284.335 162.797 287.75 161.15 Q 291.169 159.515 295.025 160.275 Q 298.872 161.025 302.2 159 Q 305.536 156.98 309 155.75 Q 312.456 154.512 309.225 153.225 Z M 295.525 154.75 Q 295.721 154.713 295.95 154.7 Q 296.1 154.7 296.3 154.65 Q 296.55 154.55 296.8 154.55 Q 297.52 155.608 297.025 156.525 Q 296.906 156.617 296.8 156.675 Q 296.777 156.582 296.75 156.5 Q 296.683 156.333 296.625 156.15 Q 296.793 154.927 295.775 154.95 Q 295.651 154.832 295.525 154.75 Q 295.349 154.791 295.2 154.85 Q 294.763 154.734 294.175 154.925 Q 294.196 154.807 294.225 154.7 L 294.25 154.65 Q 294.3 154.55 294.55 154.575 Q 295.043 154.44 295.525 154.75 Z M 296.625 156.15 Q 296.61 156.196 296.6 156.25 Q 296.567 155.715 296.05 155.575 Q 295.841 155.204 295.55 155 Q 295.603 154.974 295.65 154.95 Q 295.715 154.945 295.775 154.95 Q 295.989 155.131 296.2 155.4 Q 296.4 155.65 296.55 155.95 Q 296.583 156.05 296.625 156.15 Z M 296.55 156.775 Q 296.485 156.792 296.425 156.8 Q 296.369 156.806 296.325 156.8 Q 295.898 156.798 295.5 156.4 Q 295.037 155.966 295.075 155.6 Q 295.225 155.564 295.4 155.55 Q 295.781 155.517 296.05 155.575 Q 296.072 155.64 296.1 155.7 Q 296.25 156.1 296.3 156.5 Q 296.318 156.666 296.325 156.8 Q 296.31 156.882 296.3 156.95 L 296.35 156.95 Q 296.404 156.968 296.45 156.975 Q 296.386 156.992 296.325 157 Q 296.34 156.975 296.35 156.95 Q 296.387 156.876 296.425 156.8 Q 296.525 156.551 296.6 156.25 Q 296.617 156.557 296.55 156.775 Q 296.668 156.743 296.8 156.675 Q 296.8 156.759 296.8 156.85 Q 296.677 157.014 296.45 156.975 Q 296.509 156.887 296.55 156.775 Z M 297.025 156.525 Q 296.93 156.689 296.8 156.85 M 296.45 156.975 Q 296.37 157.102 296.25 157.175 Q 296.119 157.264 295.95 157.3 Q 296.165 157.228 296.275 157.075 Q 296.284 157.045 296.3 157 L 296.325 157 Q 296.305 157.04 296.275 157.075 Q 296.262 157.132 296.25 157.175 Q 296.03 157.803 295.1 157.7 Q 294.842 157.668 294.65 157.55 Q 294.982 157.65 295.4 157.65 Q 295.85 157.65 295.95 157.3 M 296.3 157 Q 295.947 157.071 295.575 157.025 Q 295.894 157.033 296.3 156.95 Z M 294.5 155.9 Q 294.491 156.164 294.55 156.5 Q 294.422 156.322 294.325 156.15 Q 294.397 156.002 294.5 155.9 Q 294.56 155.135 295.2 154.85 Q 295.386 154.904 295.55 155 Q 295.479 155.047 295.4 155.1 Q 295.105 155.332 295.075 155.6 Q 294.716 155.683 294.5 155.9 Z M 293.7 155.1 Q 294 155.4 294.1 155.95 Q 294.13 156.129 294.275 156.3 Q 294.225 156.512 294.25 156.8 Q 294.284 157.342 294.65 157.55 Q 293.252 157.177 293.7 155.1 Q 293.947 154.987 294.175 154.925 Q 294.032 155.542 294.325 156.15 Q 294.298 156.216 294.275 156.3 Q 294.389 156.399 294.55 156.5 Q 294.75 157.65 295.95 157.3 M 293.7 155.1 Q 293.85 155 294 154.85 Q 294.117 154.759 294.225 154.7 Q 294.39 154.608 294.55 154.575 M 295.575 157.025 Q 295.123 157.025 294.85 156.85 Q 294.653 156.721 294.55 156.5" fill="none" stroke-width="1" stroke-linejoin="round" stroke-linecap="round" stroke="#000000"/>
	</g>
</svg>
