<?xml version="1.0"?>
<!DOCTYPE svg PUBLIC "-//W3C//DTD SVG 1.1//EN" "http://www.w3.org/Graphics/SVG/1.1/DTD/svg11.dtd">
<svg version='1.1' width='79px' height='15px' xmlns='http://www.w3.org/2000/svg' xmlns:xlink='http://www.w3.org/1999/xlink'>
	<g transform="translate(-232.771,-149.494)">
		<path d="M 233.05 155.975 Q 234.5 153.725 239.3 151.55 Q 244.1 149.375 251.325 151.825 Q 258.5 154.25 260.275 157.225 Q 262.05 160.2 260.7 161.35 Q 259.35 162.5 255.725 162.75 Q 252.1 162.975 248.4 163.25 Q 244.7 163.55 238.125 160.9 Q 231.55 158.2 233.05 155.975" fill="none" stroke-width="1" stroke-linejoin="round" stroke-linecap="round" stroke="#000000"/>
		<path d="M 233.05 155.975 Q 234.5 153.725 239.3 151.55 Q 244.1 149.375 251.325 151.825 Q 258.5 154.25 260.275 157.225 Q 262.05 160.2 260.7 161.35 Q 259.35 162.5 255.725 162.75 Q 252.1 162.975 248.4 163.25 Q 244.7 163.55 238.125 160.9 Q 231.55 158.2 233.05 155.975" fill="#FFFFFF" stroke-width="1" stroke-linejoin="round" stroke-linecap="round" stroke="#000000"/>
		<path d="M 249.35 157.05 Q 249.3 156.8 249.6 156.5 Q 251.5 155.65 251.7 155.7 Q 252.3 155.95 252.65 156.3 Q 253.3 156.4 253.4 156.85 Q 253.85 157.15 253.85 157.85 Q 254.35 158.5 254.35 159.3 Q 253.3 160.1 251.8 159.85 Q 251.2 159.8 251.25 159.05 Q 248.85 159.5 249.35 157.05" fill="#FFFFFF" stroke-width="1" stroke-linejoin="round" stroke-linecap="round" stroke="#000000"/>
		<path d="M 252.325 157.95 Q 252.65 157.95 252.75 157.75 Q 253.775 157.85 253.8 157.8 Q 253.925 157.95 254 158.1 Q 254.1 158.275 254.1 158.475 Q 253.55 158.7 252.725 158.475 Q 252.375 158.375 252.325 157.95" fill="#FFFFFF" stroke-width="1" stroke-linejoin="round" stroke-linecap="round" stroke="#000000"/>
		<path d="M 252.4 158.55 Q 253.95 158.85 253.45 157.4 Q 252.55 158.65 252.4 158.55" fill="#FFFFFF" stroke-width="1" stroke-linejoin="round" stroke-linecap="round" stroke="#000000"/>
		<path d="M 252.325 157.95 Q 252.65 157.95 252.75 157.75 Q 253.775 157.85 253.8 157.8 Q 253.925 157.95 254 158.1 Q 254.1 158.275 254.1 158.475 Q 253.55 158.7 252.725 158.475 Q 252.4 158.4 252.375 158 L 252.325 157.95" fill="#FFFFFF" stroke-width="1" stroke-linejoin="round" stroke-linecap="round" stroke="#000000"/>
		<path d="M 250.65 156.5 Q 250.6 156.05 251 155.8 Q 250.75 156.25 250.75 156.5 Q 250.7 156.5 250.65 156.5" fill="#FFFFFF" stroke-width="1" stroke-linejoin="round" stroke-linecap="round" stroke="#000000"/>
		<path d="M 249.35 157.05 Q 249.3 156.8 249.6 156.5 Q 251.1 155.7 251 155.8 Q 250.3 156.55 250.2 156.7 Q 249.75 156.75 249.35 157.05" fill="#FFFFFF" stroke-width="1" stroke-linejoin="round" stroke-linecap="round" stroke="#000000"/>
		<path d="M 251.1 157.55 Q 251.3 157.45 251.4 157.3 Q 251.5 157.95 251.2 157.95 L 251.15 157.9 Q 251.05 157.75 251.1 157.55" fill="#FFFFFF" stroke-width="1" stroke-linejoin="round" stroke-linecap="round" stroke="#000000"/>
		<path d="M 251.8 157.85 Q 251.95 157.8 252.1 157.65 Q 251.8 157.95 251.8 157.85" fill="#FFFFFF" stroke-width="1" stroke-linejoin="round" stroke-linecap="round" stroke="#000000"/>
		<path d="M 252.5 156.65 Q 252.7 156.65 252.95 156.65 Q 252.6 156.75 252.5 156.65" fill="#FFFFFF" stroke-width="1" stroke-linejoin="round" stroke-linecap="round" stroke="#000000"/>
		<path d="M 252.2 158.25 Q 252.3 158.25 252.45 158.2 Q 253.15 157.3 252.95 156.65 Q 253.95 158.85 252.4 158.55 Q 252.25 158.35 252.2 158.25" fill="#FFFFFF" stroke-width="1" stroke-linejoin="round" stroke-linecap="round" stroke="#000000"/>
		<path d="M 249.35 157.05 Q 249.75 156.75 250.2 156.7 Q 250.7 157.85 250.7 157.9 Q 251.1 158.2 251.15 158.35 Q 250.95 158.4 250.8 158.6 Q 250.7 158.75 250.4 158.75 Q 249.65 158.7 249.5 157.9 Q 249.45 157.5 249.35 157.05" fill="#FFFFFF" stroke-width="1" stroke-linejoin="round" stroke-linecap="round" stroke="#000000"/>
		<path d="M 249.35 157.05 Q 249.45 157.5 249.5 157.9 Q 250.95 158.4 251.15 158.35 Q 251.2 158.7 251.25 159.05 Q 248.85 159.5 249.35 157.05" fill="#FFFFFF" stroke-width="1" stroke-linejoin="round" stroke-linecap="round" stroke="#000000"/>
		<path d="M 284.1 159.625 Q 285.125 154.275 287.95 152.3 Q 290.725 150.275 298.375 149.625 Q 306 148.95 309.25 151.75 Q 312.45 154.5 310.1 156.575 Q 307.75 158.625 304.425 161.25 Q 301.1 163.9 295.1 163.475 Q 289.05 163 286.05 163.975 Q 283.05 164.95 284.1 159.625" fill="none" stroke-width="1" stroke-linejoin="round" stroke-linecap="round" stroke="#000000"/>
		<path d="M 284.1 159.625 Q 285.125 154.275 287.95 152.3 Q 290.725 150.275 298.375 149.625 Q 306 148.95 309.25 151.75 Q 312.45 154.5 310.1 156.575 Q 307.75 158.625 304.425 161.25 Q 301.1 163.9 295.1 163.475 Q 289.05 163 286.05 163.975 Q 283.05 164.95 284.1 159.625" fill="#FFFFFF" stroke-width="1" stroke-linejoin="round" stroke-linecap="round" stroke="#000000"/>
		<path d="M 293.7 155.1 Q 293.85 155 294 154.85 Q 295.05 154.5 295.45 154.7 Q 295.725 154.725 295.8 154.725 Q 295.925 154.7 296.075 154.675 Q 296.525 154.6 296.6 154.6 Q 296.775 154.675 296.925 154.8 Q 297.35 155.525 297.15 156.25 Q 297.075 156.425 296.975 156.6 Q 296.925 156.7 296.85 156.775 Q 296.775 156.8 296.7 156.825 Q 296.625 156.925 296.525 157.025 Q 296.425 157.275 296.125 157.325 Q 296 157.4 295.85 157.45 Q 295.75 157.5 295.625 157.55 Q 295.425 157.65 295.175 157.625 Q 295.05 157.6 294.9 157.575 Q 294.825 157.7 294.7 157.8 Q 294.6 157.875 294.525 157.975 Q 294.475 157.925 294.425 157.875 Q 294.4 157.85 294.375 157.825 Q 294.15 157.55 294.05 157.275 Q 293.4 156.65 293.7 155.15 L 293.7 155.1" fill="#FFFFFF" stroke-width="1" stroke-linejoin="round" stroke-linecap="round" stroke="#000000"/>
		<path d="M 295.55 154.75 Q 295.7 154.7 295.95 154.7 Q 297.5 155.6 297.05 156.55 Q 296.8 154.95 295.8 154.95 Q 295.65 154.85 295.55 154.75" fill="#FFFFFF" stroke-width="1" stroke-linejoin="round" stroke-linecap="round" stroke="#000000"/>
		<path d="M 295.8 154.95 Q 296 155.15 296.2 155.4 Q 296.8 154.95 295.8 154.95" fill="#FFFFFF" stroke-width="1" stroke-linejoin="round" stroke-linecap="round" stroke="#000000"/>
		<path d="M 295.55 155 Q 295.6 154.95 295.65 154.95 Q 296.6 156.05 296.65 156.15 Q 295.85 155.2 295.55 155" fill="#FFFFFF" stroke-width="1" stroke-linejoin="round" stroke-linecap="round" stroke="#000000"/>
		<path d="M 294.525 156.175 Q 294.65 155.875 294.9 155.675 Q 295.925 156.7 296.125 156.75 Q 296.175 156.95 296.125 156.975 Q 295.95 157.025 295.8 157.025 Q 295.55 157.05 295.4 157.025 Q 295.25 157 295.125 156.95 Q 294.875 156.825 294.7 156.7 Q 294.7 156.7 294.7 156.675 Q 294.575 156.5 294.525 156.3 Q 294.525 156.25 294.525 156.225 L 294.525 156.175" fill="#FFFFFF" stroke-width="1" stroke-linejoin="round" stroke-linecap="round" stroke="#000000"/>
		<path d="M 296.05 155.6 Q 296.05 155.65 296.1 155.7 Q 296.5 156.55 296.6 156.25 Q 296.55 155.7 296.05 155.6" fill="#FFFFFF" stroke-width="1" stroke-linejoin="round" stroke-linecap="round" stroke="#000000"/>
		<path d="M 295.1 155.6 Q 295.25 155.55 295.4 155.55 Q 296.3 156.65 296.35 156.8 Q 295.9 156.8 295.5 156.4 Q 295.05 155.95 295.1 155.6" fill="#FFFFFF" stroke-width="1" stroke-linejoin="round" stroke-linecap="round" stroke="#000000"/>
		<path d="M 294.55 156.5 Q 294.65 156.7 294.85 156.85 Q 296.3 157.05 296.3 157.1 Q 294.75 157.65 294.55 156.5" fill="#FFFFFF" stroke-width="1" stroke-linejoin="round" stroke-linecap="round" stroke="#000000"/>
		<path d="M 294.35 156 Q 294.375 155.075 294.55 154.9 Q 295.525 154.875 295.5 154.875 Q 295.225 155.025 295.175 155.075 Q 294.9 155.275 294.825 155.575 Q 294.6 155.85 294.55 155.95 Q 294.45 155.925 294.375 155.975 L 294.35 156" fill="#FFFFFF" stroke-width="1" stroke-linejoin="round" stroke-linecap="round" stroke="#000000"/>
		<path d="M 293.95 155.025 Q 294 154.925 294.075 154.825 Q 294.75 155.475 294.75 155.5 Q 294.7 155.475 294.65 155.45 Q 294.425 155.15 294.175 155.075 Q 294.075 155.05 293.975 155.05 L 293.95 155.025" fill="#FFFFFF" stroke-width="1" stroke-linejoin="round" stroke-linecap="round" stroke="#000000"/>
		<path d="M 293.7 155.1 Q 293.725 155.125 293.775 155.175 Q 294.125 156.6 294.125 156.575 Q 293.925 156.4 293.875 156.2 Q 293.775 155.7 293.675 155.275 L 293.7 155.1" fill="#FFFFFF" stroke-width="1" stroke-linejoin="round" stroke-linecap="round" stroke="#000000"/>
		<path d="M 294.175 156.15 Q 294.425 155.575 294.7 155.5 Q 294.125 156.45 294.175 156.15" fill="#FFFFFF" stroke-width="1" stroke-linejoin="round" stroke-linecap="round" stroke="#000000"/>
		<path d="M 293.775 155.175 Q 294 155.45 294.1 155.95 Q 293.6 156.425 293.775 155.175" fill="#FFFFFF" stroke-width="1" stroke-linejoin="round" stroke-linecap="round" stroke="#000000"/>
		<path d="M 294.325 157.05 Q 294.35 156.675 294.425 156.4 Q 295.85 157.65 295.4 157.65 Q 294.4 157.4 294.325 157.05" fill="#FFFFFF" stroke-width="1" stroke-linejoin="round" stroke-linecap="round" stroke="#000000"/>
		<path d="M 294.4 157.45 Q 294.45 157.45 294.5 157.475 Q 295.175 157.75 295.225 157.7 Q 295.2 157.725 295.175 157.75 Q 295 157.8 294.625 157.65 Q 294.5 157.55 294.4 157.45" fill="#FFFFFF" stroke-width="1" stroke-linejoin="round" stroke-linecap="round" stroke="#000000"/>
		<path d="M 294.425 156.875 Q 294.5 156.925 294.575 156.95 Q 295.2 157.25 295.275 157.25 Q 294.925 157.4 294.65 157.225 Q 294.525 157.125 294.425 157 L 294.425 156.875" fill="#FFFFFF" stroke-width="1" stroke-linejoin="round" stroke-linecap="round" stroke="#000000"/>
		<path d="M 294.65 157.55 Q 295 157.65 295.4 157.65 Q 294.85 157.65 294.65 157.55" fill="#FFFFFF" stroke-width="1" stroke-linejoin="round" stroke-linecap="round" stroke="#000000"/>
	</g>
</svg>
