<?xml version="1.0"?>
<!DOCTYPE svg PUBLIC "-//W3C//DTD SVG 1.1//EN" "http://www.w3.org/Graphics/SVG/1.1/DTD/svg11.dtd">
<svg version='1.1' width='80px' height='87px' xmlns='http://www.w3.org/2000/svg' xmlns:xlink='http://www.w3.org/1999/xlink'>
	<g transform="translate(-228.876,-107.144)">
		<path d="M 268.65 172 Q 257.016 193.855 285.55 193.35" fill="none" stroke-width="1" stroke-linejoin="round" stroke-linecap="round" stroke="#000000"/>
		<path d="M 254.05 124.75 Q 254.05 123.65 254.4 122.6 Q 254.6 121.95 254.75 121.3 Q 255.15 119.75 255.85 118.45 Q 256.436 117.432 256.625 116.225 Q 256.43 116.027 256.2 115.85 Q 252.4 112.95 245.05 113.05 Q 241.3 113.15 238.5 114.95 Q 237.2 115.8 236.75 117.95 Q 236.6 118.6 236.35 119.25 Q 235.972 120.338 235.875 121.175 Q 238.753 121.517 241.6 121.85 Q 242.25 121.95 242.9 122.15 Q 246.3 123.2 247.2 124.8 Q 247.85 125.9 248.65 126.1 Q 251.45 126.8 251.8 129.25 M 239.4 124.75 Q 238.85 124.2 238.25 124.15 Q 235.577 123.921 235.875 121.175 Q 234.866 121.067 233.85 120.95 Q 231.45 120.7 231.1 122.4 Q 231 123.1 230.75 123.75 Q 229.7 126.85 229.4 130.4 Q 229.15 134.35 231.55 137.15 M 306.85 129.25 Q 305.8 125.4 307.15 123.95 Q 308 123.1 308.15 121.4 Q 308.5 117.8 304.65 116.65 Q 301.8 115.8 298.9 114.95 Q 297.9 114.65 296.75 114.65 Q 293.95 114.65 291.2 115.1 Q 291.105 115.122 291 115.15 Q 293.319 116.033 295.5 117.15 Q 296.2 117.5 296.35 118.15 Q 297.8 124.2 294.5 127 M 283.25 119.15 Q 286.3 115.9 289.9 115.35 Q 290.455 115.264 291 115.15 Q 288.98 114.359 286.85 113.75 Q 286.05 113.55 285.15 112.9 Q 284.4 112.4 283.25 112.3 Q 278.75 111.8 277.2 114.4 Q 276.559 115.477 276.1 116.4 Q 277.166 120.272 275.4 124.75 M 275.4 118.05 Q 275.668 117.295 276.1 116.4 Q 275.088 112.725 271.5 109.6 Q 270.9 109.05 269.95 108.6 Q 267.1 107.2 261.9 107.85 Q 256.4 108.6 256.7 114.65 Q 256.738 115.473 256.625 116.225 Q 256.974 116.58 257.2 117 Q 259.9 121.85 263 124.75" fill="none" stroke-width="1" stroke-linejoin="round" stroke-linecap="round" stroke="#000000"/>
	</g>
</svg>
