<?xml version="1.0"?>
<!DOCTYPE svg PUBLIC "-//W3C//DTD SVG 1.1//EN" "http://www.w3.org/Graphics/SVG/1.1/DTD/svg11.dtd">
<svg version='1.1' width='72px' height='11px' xmlns='http://www.w3.org/2000/svg' xmlns:xlink='http://www.w3.org/1999/xlink'>
	<g transform="translate(-237.452,-151.48)">
		<path d="M 238.16 155.95 Q 240.05 154.74 246.85 153.85 Q 253.64 152.96 256.93 154.44 Q 260.18 155.88 261.2 159.2 Q 262.22 162.51 259.94 161.64 Q 257.65 160.77 253.72 161.45 Q 249.79 162.09 246.34 160.61 Q 242.89 159.16 239.56 158.14 Q 236.23 157.11 238.16 155.95" fill="none" stroke-width="1" stroke-linejoin="round" stroke-linecap="round" stroke="#000000"/>
		<path d="M 238.16 155.95 Q 240.05 154.74 246.85 153.85 Q 253.64 152.96 256.93 154.44 Q 260.18 155.88 261.2 159.2 Q 262.22 162.51 259.94 161.64 Q 257.65 160.77 253.72 161.45 Q 249.79 162.09 246.34 160.61 Q 242.89 159.16 239.56 158.14 Q 236.23 157.11 238.16 155.95" fill="#FFFFFF" stroke-width="1" stroke-linejoin="round" stroke-linecap="round" stroke="#000000"/>
		<path d="M 249.35 157.05 Q 249.3 156.8 249.6 156.5 Q 251.5 155.65 251.7 155.7 Q 252.3 155.95 252.65 156.3 Q 253.3 156.4 253.4 156.85 Q 253.85 157.15 253.85 157.85 Q 254.35 158.5 254.35 159.3 Q 253.3 160.1 251.8 159.85 Q 251.2 159.8 251.25 159.05 Q 248.85 159.5 249.35 157.05" fill="#FFFFFF" stroke-width="1" stroke-linejoin="round" stroke-linecap="round" stroke="#000000"/>
		<path d="M 252.97 157.29 Q 253.13 157.35 253.17 157.36 Q 253.73 157.76 253.77 157.77 Q 253.85 157.86 253.91 157.95 Q 253.95 157.96 253.95 157.98 Q 253.7 157.86 253.28 157.65 Q 253.12 157.56 253.05 157.37 L 252.97 157.29" fill="#FFFFFF" stroke-width="1" stroke-linejoin="round" stroke-linecap="round" stroke="#000000"/>
		<path d="M 252.4 158.55 Q 253.95 158.85 253.45 157.4 Q 252.55 158.65 252.4 158.55" fill="#FFFFFF" stroke-width="1" stroke-linejoin="round" stroke-linecap="round" stroke="#000000"/>
		<path d="M 251.68 158.61 Q 252.17 158.55 252.33 158.14 Q 253.82 157.94 253.83 157.83 Q 254 158.04 254.09 158.25 Q 254.25 158.59 254.25 158.97 Q 253.4 159.54 252.17 159.3 Q 251.67 159.23 251.68 158.61" fill="#FFFFFF" stroke-width="1" stroke-linejoin="round" stroke-linecap="round" stroke="#000000"/>
		<path d="M 250.65 156.5 Q 250.6 156.05 251 155.8 Q 250.75 156.25 250.75 156.5 Q 250.7 156.5 250.65 156.5" fill="#FFFFFF" stroke-width="1" stroke-linejoin="round" stroke-linecap="round" stroke="#000000"/>
		<path d="M 249.35 157.05 Q 249.3 156.8 249.6 156.5 Q 251.1 155.7 251 155.8 Q 250.3 156.55 250.2 156.7 Q 249.75 156.75 249.35 157.05" fill="#FFFFFF" stroke-width="1" stroke-linejoin="round" stroke-linecap="round" stroke="#000000"/>
		<path d="M 251.1 157.55 Q 251.3 157.45 251.4 157.3 Q 251.5 157.95 251.2 157.95 L 251.15 157.9 Q 251.05 157.75 251.1 157.55" fill="#FFFFFF" stroke-width="1" stroke-linejoin="round" stroke-linecap="round" stroke="#000000"/>
		<path d="M 251.8 157.85 Q 251.95 157.8 252.1 157.65 Q 251.8 157.95 251.8 157.85" fill="#FFFFFF" stroke-width="1" stroke-linejoin="round" stroke-linecap="round" stroke="#000000"/>
		<path d="M 252.5 156.65 Q 252.7 156.65 252.95 156.65 Q 252.6 156.75 252.5 156.65" fill="#FFFFFF" stroke-width="1" stroke-linejoin="round" stroke-linecap="round" stroke="#000000"/>
		<path d="M 252.2 158.25 Q 252.3 158.25 252.45 158.2 Q 253.15 157.3 252.95 156.65 Q 253.95 158.85 252.4 158.55 Q 252.25 158.35 252.2 158.25" fill="#FFFFFF" stroke-width="1" stroke-linejoin="round" stroke-linecap="round" stroke="#000000"/>
		<path d="M 249.35 157.05 Q 249.75 156.75 250.2 156.7 Q 250.7 157.85 250.7 157.9 Q 251.1 158.2 251.15 158.35 Q 250.95 158.4 250.8 158.6 Q 250.7 158.75 250.4 158.75 Q 249.65 158.7 249.5 157.9 Q 249.45 157.5 249.35 157.05" fill="#FFFFFF" stroke-width="1" stroke-linejoin="round" stroke-linecap="round" stroke="#000000"/>
		<path d="M 249.35 157.05 Q 249.45 157.5 249.5 157.9 Q 250.95 158.4 251.15 158.35 Q 251.2 158.7 251.25 159.05 Q 248.85 159.5 249.35 157.05" fill="#FFFFFF" stroke-width="1" stroke-linejoin="round" stroke-linecap="round" stroke="#000000"/>
		<path d="M 285.76 158.57 Q 286.51 154.9 288.89 153.05 Q 291.22 151.15 298.61 151.55 Q 306 151.95 309.25 153.25 Q 305.36 157.19 301.81 158.89 Q 298.26 160.63 294.81 160.03 Q 291.28 159.39 288.14 160.81 Q 285 162.23 285.76 158.57" fill="none" stroke-width="1" stroke-linejoin="round" stroke-linecap="round" stroke="#000000"/>
		<path d="M 285.76 158.57 Q 286.51 154.9 288.89 153.05 Q 291.22 151.15 298.61 151.55 Q 306 151.95 309.25 153.25 Q 305.36 157.19 301.81 158.89 Q 298.26 160.63 294.81 160.03 Q 291.28 159.39 288.14 160.81 Q 285 162.23 285.76 158.57" fill="#FFFFFF" stroke-width="1" stroke-linejoin="round" stroke-linecap="round" stroke="#000000"/>
		<path d="M 293.7 155.1 Q 293.85 155 294 154.85 Q 295.7 154.7 295.95 154.7 Q 296.55 154.55 296.8 154.55 Q 297.5 155.6 297.05 156.55 Q 296.95 156.7 296.8 156.85 Q 296.7 157 296.45 157 Q 296.35 157.1 296.25 157.2 Q 296.05 157.8 295.1 157.7 Q 294.85 157.65 294.65 157.55 Q 293.25 157.2 293.7 155.1" fill="#FFFFFF" stroke-width="1" stroke-linejoin="round" stroke-linecap="round" stroke="#000000"/>
		<path d="M 295.55 154.75 Q 295.7 154.7 295.95 154.7 Q 297.5 155.6 297.05 156.55 Q 296.8 154.95 295.8 154.95 Q 295.65 154.85 295.55 154.75" fill="#FFFFFF" stroke-width="1" stroke-linejoin="round" stroke-linecap="round" stroke="#000000"/>
		<path d="M 295.8 154.95 Q 296 155.15 296.2 155.4 Q 296.8 154.95 295.8 154.95" fill="#FFFFFF" stroke-width="1" stroke-linejoin="round" stroke-linecap="round" stroke="#000000"/>
		<path d="M 295.55 155 Q 295.6 154.95 295.65 154.95 Q 296.6 156.05 296.65 156.15 Q 295.85 155.2 295.55 155" fill="#FFFFFF" stroke-width="1" stroke-linejoin="round" stroke-linecap="round" stroke="#000000"/>
		<path d="M 296.05 155.6 Q 296.05 155.65 296.1 155.7 Q 296.5 156.55 296.6 156.25 Q 296.55 155.7 296.05 155.6" fill="#FFFFFF" stroke-width="1" stroke-linejoin="round" stroke-linecap="round" stroke="#000000"/>
		<path d="M 294.5 155.9 Q 294.7 155.7 295.1 155.6 Q 296.3 156.9 296.3 156.95 Q 295.9 157.05 295.6 157.05 Q 295.1 157 294.85 156.85 Q 294.5 156.15 294.5 155.9" fill="#FFFFFF" stroke-width="1" stroke-linejoin="round" stroke-linecap="round" stroke="#000000"/>
		<path d="M 295.1 155.6 Q 295.25 155.55 295.4 155.55 Q 296.3 156.65 296.35 156.8 Q 295.9 156.8 295.5 156.4 Q 295.05 155.95 295.1 155.6" fill="#FFFFFF" stroke-width="1" stroke-linejoin="round" stroke-linecap="round" stroke="#000000"/>
		<path d="M 294.55 156.5 Q 294.65 156.7 294.85 156.85 Q 296.3 157.05 296.3 157.1 Q 294.75 157.65 294.55 156.5" fill="#FFFFFF" stroke-width="1" stroke-linejoin="round" stroke-linecap="round" stroke="#000000"/>
		<path d="M 294.5 155.9 Q 294.55 155.15 295.2 154.85 Q 294.7 155.7 294.5 155.9" fill="#FFFFFF" stroke-width="1" stroke-linejoin="round" stroke-linecap="round" stroke="#000000"/>
		<path d="M 294.2 154.95 Q 294.2 154.8 294.25 154.7 Q 294.75 154.75 294.2 154.95" fill="#FFFFFF" stroke-width="1" stroke-linejoin="round" stroke-linecap="round" stroke="#000000"/>
		<path d="M 293.8 155.07 Q 294.08 154.96 294.34 154.92 Q 294.27 156.22 294.27 156.19 Q 294.02 155.45 293.8 155.07" fill="#FFFFFF" stroke-width="1" stroke-linejoin="round" stroke-linecap="round" stroke="#000000"/>
		<path d="M 294.1 154.98 Q 294.47 154.84 294.76 154.83 Q 294.33 156.13 294.33 156.16 Q 294.08 155.44 294.1 154.98" fill="#FFFFFF" stroke-width="1" stroke-linejoin="round" stroke-linecap="round" stroke="#000000"/>
		<path d="M 293.7 155.1 Q 294 155.4 294.1 155.95 Q 293.25 157.2 293.7 155.1" fill="#FFFFFF" stroke-width="1" stroke-linejoin="round" stroke-linecap="round" stroke="#000000"/>
		<path d="M 294.25 156.8 Q 294.25 156.5 294.3 156.3 Q 295.85 157.65 295.4 157.65 Q 294.3 157.35 294.25 156.8" fill="#FFFFFF" stroke-width="1" stroke-linejoin="round" stroke-linecap="round" stroke="#000000"/>
		<path d="M 294.65 157.55 Q 295 157.65 295.4 157.65 Q 294.85 157.65 294.65 157.55" fill="#FFFFFF" stroke-width="1" stroke-linejoin="round" stroke-linecap="round" stroke="#000000"/>
	</g>
</svg>
