<?xml version="1.0"?>
<!DOCTYPE svg PUBLIC "-//W3C//DTD SVG 1.1//EN" "http://www.w3.org/Graphics/SVG/1.1/DTD/svg11.dtd">
<svg version='1.1' width='227px' height='170px' xmlns='http://www.w3.org/2000/svg' xmlns:xlink='http://www.w3.org/1999/xlink'>
	<defs>
		<radialGradient id="grad0" gradientUnits="userSpaceOnUse" cx="287.6" cy="295.55" r="113.7">
		<stop offset="90.5882%" stop-color="#FFFFFF"/>
		<stop offset="100%" stop-color="#AFAFAF"/>
		</radialGradient>
	</defs>
	<g transform="translate(-166.247,-225.25)">
		<path d="M 379.7 262.6 Q 387.3 277.55 391 297.2 Q 395.15 319.65 389 334.8 Q 384.85 345.1 380 354.1 Q 371.55 369.85 353.8 375.95 Q 336.8 381.8 314.7 384.2 Q 293.35 386.55 273.3 389.8 Q 253.05 393.15 232.8 392.05 Q 217.75 391.25 205.85 385.25 Q 190.8 377.7 181.6 361.25 Q 171.8 343.85 168.55 324.85 Q 164.8 302.95 168.85 284.85 Q 173.55 263.7 183.9 250.35 Q 194.85 236.25 210.2 225.95 Q 217.5 242.3 233.75 250.8 Q 251 259.8 274.25 260.25 Q 293.7 260.7 315.25 256.5 Q 332.05 243.9 338.6 225.75 Q 355.95 232.4 367.2 244.3 Q 374.2 251.7 379.7 262.6 Z" fill="url(#grad0)"/>
		<path d="M 379.7 262.6 Q 387.3 277.55 391 297.2 Q 395.15 319.65 389 334.8 Q 384.85 345.1 380 354.1 Q 371.55 369.85 353.8 375.95 Q 336.8 381.8 314.7 384.2 Q 293.35 386.55 273.3 389.8 Q 253.05 393.15 232.8 392.05 Q 217.75 391.25 205.85 385.25 Q 190.8 377.7 181.6 361.25 Q 171.8 343.85 168.55 324.85 Q 164.8 302.95 168.85 284.85 Q 173.55 263.7 183.9 250.35 Q 194.85 236.25 210.2 225.95 Q 217.5 242.3 233.75 250.8 Q 251 259.8 274.25 260.25 Q 293.7 260.7 315.25 256.5 Q 332.05 243.9 338.6 225.75 Q 355.95 232.4 367.2 244.3 Q 374.2 251.7 379.7 262.6 Z" fill="none" stroke-width="1" stroke-linejoin="round" stroke-linecap="round" stroke="#000000"/>
		<path d="M 284.4 390.05 Q 288.75 391.8 285.1 393.85 Q 283.85 394.55 282.5 393.9 Q 281.6 393.45 281 392.3" fill="none" stroke-width="1" stroke-linejoin="round" stroke-linecap="round" stroke="#000000"/>
	</g>
</svg>
