<?xml version="1.0"?>
<!DOCTYPE svg PUBLIC "-//W3C//DTD SVG 1.1//EN" "http://www.w3.org/Graphics/SVG/1.1/DTD/svg11.dtd">
<svg version='1.1' width='82px' height='102px' xmlns='http://www.w3.org/2000/svg' xmlns:xlink='http://www.w3.org/1999/xlink'>
	<g transform="translate(-359.669,-242.351)">
	<g transform="translate(-3.3,-4.5) scale(0.999985,0.999985)">
			<path d="M 405.55 257.95 Q 406.54 258.168 407.475 258.5 Q 411.71 259.981 415.125 263.75 Q 417.079 265.944 419.4 267.65 Q 423.679 270.949 426.675 275.775 Q 427.341 276.879 428.8 277.25 Q 432.228 278.165 432.175 283.05 Q 432.17 283.775 432.775 284.5 Q 436.811 289.82 440.725 293.125 Q 441.757 294.099 442.3 295.5 Q 445.416 304.419 442.975 313.4 Q 442.493 315.357 442.5 317.375 Q 442.498 325.618 441.825 333.8 Q 441.76 334.587 441.45 335.375 Q 437.6 345.095 430.025 347.425 Q 423.489 349.434 425.075 343.625 Q 425.159 343.361 425.25 343.1 Q 425.333 342.798 425.425 342.5 Q 428.757 340.03 430.1 335.25 Q 429.423 335.924 428.625 336.475 Q 427.347 337.333 426.925 338.375 Q 426.062 340.433 425.425 342.5 Q 425.089 342.744 424.725 342.95 Q 420.58 345.57 413.675 344.975 Q 412.271 344.85 411.6 344.175 Q 410.92 343.504 410.85 342.1 Q 410.743 339.285 411.475 337.275 Q 411.961 337.071 412.375 336.8 Q 413.594 335.936 414.875 336.05 Q 420.617 336.73 421.9 332.525 Q 413.504 331.848 411.475 337.275 Q 408.713 338.596 404.025 338.125 Q 402.621 338.012 401.95 337.35 Q 401.27 336.666 401.2 335.25 Q 401.105 333.857 401.35 332.75 Q 409.604 333.533 412.25 328.35 Q 410.844 328.355 409.5 328.3 Q 402.381 327.999 401.35 332.75 Q 400.656 332.68 399.925 332.575 Q 396.87 332.088 396.625 328.425 Q 396.445 326.343 396.325 324.2 Q 395.156 310.642 409.5 310.275 Q 414.02 310.153 415.425 314 Q 415.671 314.672 417.75 314.55 Q 423.558 314.31 422.525 306.375 Q 421.606 299.478 418 296.55 Q 415.74 294.71 413.725 292.625 Q 409.755 288.664 404.075 289.1 Q 400.654 289.335 398.15 287.8 Q 397.116 287.196 395.9 286.775 Q 395.1 286.525 394.3 286.275 Q 392.35 285.787 390.4 285.3 Q 389.607 285.118 389.425 284.325 Q 388.258 279.682 385.075 278.825 Q 379.527 277.79 377.4 279.625 Q 376.535 280.298 375.425 280.85 Q 373.782 281.7 372.2 282.55 Q 370.717 283.306 369.375 284.175 L 363.475 248.1 Q 370.693 247.692 377.925 247.375 Q 384.71 247.076 389.175 251.175 Q 390.279 252.203 391.75 252.375 Q 398.704 253.42 402.85 256.725 Q 404.01 257.704 405.475 257.95 Q 405.512 257.956 405.55 257.95 Z" fill="#FFFFCC"/>
			<path d="M 405.55 257.95 Q 406.54 258.168 407.475 258.5 Q 411.71 259.981 415.125 263.75 Q 417.079 265.944 419.4 267.65 Q 423.679 270.949 426.675 275.775 Q 427.341 276.879 428.8 277.25 Q 432.228 278.165 432.175 283.05 Q 432.17 283.775 432.775 284.5 Q 436.811 289.82 440.725 293.125 Q 441.757 294.099 442.3 295.5 Q 445.416 304.419 442.975 313.4 Q 442.493 315.357 442.5 317.375 Q 442.498 325.618 441.825 333.8 Q 441.76 334.587 441.45 335.375 Q 437.6 345.095 430.025 347.425 Q 423.489 349.434 425.075 343.625 Q 425.159 343.361 425.25 343.1 Q 425.333 342.798 425.425 342.5 Q 428.757 340.03 430.1 335.25 Q 429.423 335.924 428.625 336.475 Q 427.347 337.333 426.925 338.375 Q 426.062 340.433 425.425 342.5 Q 425.089 342.744 424.725 342.95 Q 420.58 345.57 413.675 344.975 Q 412.271 344.85 411.6 344.175 Q 410.92 343.504 410.85 342.1 Q 410.743 339.285 411.475 337.275 Q 411.961 337.071 412.375 336.8 Q 413.594 335.936 414.875 336.05 Q 420.617 336.73 421.9 332.525 Q 413.504 331.848 411.475 337.275 Q 408.713 338.596 404.025 338.125 Q 402.621 338.012 401.95 337.35 Q 401.27 336.666 401.2 335.25 Q 401.105 333.857 401.35 332.75 Q 409.604 333.533 412.25 328.35 Q 410.844 328.355 409.5 328.3 Q 402.381 327.999 401.35 332.75 Q 400.656 332.68 399.925 332.575 Q 396.87 332.088 396.625 328.425 Q 396.445 326.343 396.325 324.2 Q 395.156 310.642 409.5 310.275 Q 414.02 310.153 415.425 314 Q 415.671 314.672 417.75 314.55 Q 423.558 314.31 422.525 306.375 Q 421.606 299.478 418 296.55 Q 415.74 294.71 413.725 292.625 Q 409.755 288.664 404.075 289.1 Q 400.654 289.335 398.15 287.8 Q 397.116 287.196 395.9 286.775 Q 395.1 286.525 394.3 286.275 Q 392.35 285.787 390.4 285.3 Q 389.607 285.118 389.425 284.325 Q 388.258 279.682 385.075 278.825 Q 379.527 277.79 377.4 279.625 Q 376.535 280.298 375.425 280.85 Q 373.782 281.7 372.2 282.55 Q 370.717 283.306 369.375 284.175 L 363.475 248.1 Q 370.693 247.692 377.925 247.375 Q 384.71 247.076 389.175 251.175 Q 390.279 252.203 391.75 252.375 Q 398.704 253.42 402.85 256.725 Q 404.01 257.704 405.475 257.95 Q 405.512 257.956 405.55 257.95 Z" fill="none" stroke-width="1" stroke-linejoin="round" stroke-linecap="round" stroke="#000000"/>
	</g>
	</g>
</svg>
