<?xml version="1.0"?>
<!DOCTYPE svg PUBLIC "-//W3C//DTD SVG 1.1//EN" "http://www.w3.org/Graphics/SVG/1.1/DTD/svg11.dtd">
<svg version='1.1' width='75px' height='11px' xmlns='http://www.w3.org/2000/svg' xmlns:xlink='http://www.w3.org/1999/xlink'>
	<g transform="translate(-236.604,-151.48)">
		<path d="M 237.255 155.875 Q 239.165 154.065 245.32 153.41 Q 251.46 152.74 255.38 153.905 Q 259.265 155.035 260.1 158.28 Q 260.92 161.51 259.47 161.675 Q 258.005 161.84 254.485 162.175 Q 250.965 162.475 247.015 161.28 Q 243.05 160.12 239.18 158.885 Q 235.31 157.65 237.255 155.875" fill="none" stroke-width="1" stroke-linejoin="round" stroke-linecap="round" stroke="#000000"/>
		<path d="M 237.255 155.875 Q 239.165 154.065 245.32 153.41 Q 251.46 152.74 255.38 153.905 Q 259.265 155.035 260.1 158.28 Q 260.92 161.51 259.47 161.675 Q 258.005 161.84 254.485 162.175 Q 250.965 162.475 247.015 161.28 Q 243.05 160.12 239.18 158.885 Q 235.31 157.65 237.255 155.875" fill="#FFFFFF" stroke-width="1" stroke-linejoin="round" stroke-linecap="round" stroke="#000000"/>
		<path d="M 249.35 157.05 Q 249.3 156.8 249.6 156.5 Q 251.5 155.65 251.7 155.7 Q 252.3 155.95 252.65 156.3 Q 253.3 156.4 253.4 156.85 Q 253.85 157.15 253.85 157.85 Q 254.35 158.5 254.35 159.3 Q 253.3 160.1 251.8 159.85 Q 251.2 159.8 251.25 159.05 Q 248.85 159.5 249.35 157.05" fill="#FFFFFF" stroke-width="1" stroke-linejoin="round" stroke-linecap="round" stroke="#000000"/>
		<path d="M 251.25 159.05 Q 251.85 158.95 252.05 158.4 Q 253.85 158 253.85 157.85 Q 254.35 158.5 254.35 159.3 Q 253.3 160.1 251.8 159.85 Q 251.2 159.8 251.25 159.05" fill="#FFFFFF" stroke-width="1" stroke-linejoin="round" stroke-linecap="round" stroke="#000000"/>
		<path d="M 252.4 158.55 Q 253.95 158.85 253.45 157.4 Q 252.55 158.65 252.4 158.55" fill="#FFFFFF" stroke-width="1" stroke-linejoin="round" stroke-linecap="round" stroke="#000000"/>
		<path d="M 253.4 156.85 Q 253.45 157.05 253.45 157.4 Q 253.85 157.15 253.4 156.85" fill="#FFFFFF" stroke-width="1" stroke-linejoin="round" stroke-linecap="round" stroke="#000000"/>
		<path d="M 250.65 156.5 Q 250.6 156.05 251 155.8 Q 250.75 156.25 250.75 156.5 Q 250.7 156.5 250.65 156.5" fill="#FFFFFF" stroke-width="1" stroke-linejoin="round" stroke-linecap="round" stroke="#000000"/>
		<path d="M 249.35 157.05 Q 249.3 156.8 249.6 156.5 Q 251.1 155.7 251 155.8 Q 250.3 156.55 250.2 156.7 Q 249.75 156.75 249.35 157.05" fill="#FFFFFF" stroke-width="1" stroke-linejoin="round" stroke-linecap="round" stroke="#000000"/>
		<path d="M 251.1 157.55 Q 251.3 157.45 251.4 157.3 Q 251.5 157.95 251.2 157.95 L 251.15 157.9 Q 251.05 157.75 251.1 157.55" fill="#FFFFFF" stroke-width="1" stroke-linejoin="round" stroke-linecap="round" stroke="#000000"/>
		<path d="M 251.8 157.85 Q 251.95 157.8 252.1 157.65 Q 251.8 157.95 251.8 157.85" fill="#FFFFFF" stroke-width="1" stroke-linejoin="round" stroke-linecap="round" stroke="#000000"/>
		<path d="M 252.5 156.65 Q 252.7 156.65 252.95 156.65 Q 252.6 156.75 252.5 156.65" fill="#FFFFFF" stroke-width="1" stroke-linejoin="round" stroke-linecap="round" stroke="#000000"/>
		<path d="M 252.2 158.25 Q 252.3 158.25 252.45 158.2 Q 253.15 157.3 252.95 156.65 Q 253.95 158.85 252.4 158.55 Q 252.25 158.35 252.2 158.25" fill="#FFFFFF" stroke-width="1" stroke-linejoin="round" stroke-linecap="round" stroke="#000000"/>
		<path d="M 249.35 157.05 Q 249.75 156.75 250.2 156.7 Q 250.7 157.85 250.7 157.9 Q 251.1 158.2 251.15 158.35 Q 250.95 158.4 250.8 158.6 Q 250.7 158.75 250.4 158.75 Q 249.65 158.7 249.5 157.9 Q 249.45 157.5 249.35 157.05" fill="#FFFFFF" stroke-width="1" stroke-linejoin="round" stroke-linecap="round" stroke="#000000"/>
		<path d="M 249.35 157.05 Q 249.45 157.5 249.5 157.9 Q 250.95 158.4 251.15 158.35 Q 251.2 158.7 251.25 159.05 Q 248.85 159.5 249.35 157.05" fill="#FFFFFF" stroke-width="1" stroke-linejoin="round" stroke-linecap="round" stroke="#000000"/>
		<path d="M 285.05 158.85 Q 285.75 154.9 288.5 153.05 Q 291.2 151.15 298.6 151.55 Q 306 151.95 309.25 153.25 Q 312.45 154.5 309.705 155.825 Q 306.945 157.135 304 159.285 Q 301.04 161.455 296.295 161.155 Q 291.465 160.805 287.915 161.81 Q 284.35 162.8 285.05 158.85" fill="none" stroke-width="1" stroke-linejoin="round" stroke-linecap="round" stroke="#000000"/>
		<path d="M 285.05 158.85 Q 285.75 154.9 288.5 153.05 Q 291.2 151.15 298.6 151.55 Q 306 151.95 309.25 153.25 Q 312.45 154.5 309.705 155.825 Q 306.945 157.135 304 159.285 Q 301.04 161.455 296.295 161.155 Q 291.465 160.805 287.915 161.81 Q 284.35 162.8 285.05 158.85" fill="#FFFFFF" stroke-width="1" stroke-linejoin="round" stroke-linecap="round" stroke="#000000"/>
		<path d="M 293.7 155.1 Q 293.85 155 294 154.85 Q 295.7 154.7 295.95 154.7 Q 296.55 154.55 296.8 154.55 Q 297.5 155.6 297.05 156.55 Q 296.95 156.7 296.8 156.85 Q 296.7 157 296.45 157 Q 296.35 157.1 296.25 157.2 Q 296.05 157.8 295.1 157.7 Q 294.85 157.65 294.65 157.55 Q 293.25 157.2 293.7 155.1" fill="#FFFFFF" stroke-width="1" stroke-linejoin="round" stroke-linecap="round" stroke="#000000"/>
		<path d="M 295.55 154.75 Q 295.7 154.7 295.95 154.7 Q 297.5 155.6 297.05 156.55 Q 296.8 154.95 295.8 154.95 Q 295.65 154.85 295.55 154.75" fill="#FFFFFF" stroke-width="1" stroke-linejoin="round" stroke-linecap="round" stroke="#000000"/>
		<path d="M 295.8 154.95 Q 296 155.15 296.2 155.4 Q 296.8 154.95 295.8 154.95" fill="#FFFFFF" stroke-width="1" stroke-linejoin="round" stroke-linecap="round" stroke="#000000"/>
		<path d="M 295.55 155 Q 295.6 154.95 295.65 154.95 Q 296.6 156.05 296.65 156.15 Q 295.85 155.2 295.55 155" fill="#FFFFFF" stroke-width="1" stroke-linejoin="round" stroke-linecap="round" stroke="#000000"/>
		<path d="M 295.585 155.69 Q 295.6 155.71 295.65 155.73 Q 296.21 156.695 296.35 156.8 Q 296.355 156.7 296.3 156.56 Q 296.285 156.525 296.27 156.49 Q 296.15 156.37 296.04 156.255 Q 295.945 156.14 295.88 156.01 Q 295.795 155.8 295.585 155.69" fill="#FFFFFF" stroke-width="1" stroke-linejoin="round" stroke-linecap="round" stroke="#000000"/>
		<path d="M 294.965 155.81 Q 295 155.79 295.05 155.77 Q 296.09 156.755 296.35 156.8 Q 296.095 156.9 295.9 156.84 Q 295.865 156.825 295.83 156.81 Q 295.55 156.73 295.36 156.595 Q 295.205 156.46 295.12 156.29 Q 295.055 156.015 294.995 155.81 L 294.965 155.81" fill="#FFFFFF" stroke-width="1" stroke-linejoin="round" stroke-linecap="round" stroke="#000000"/>
		<path d="M 295.1 155.6 Q 295.25 155.55 295.4 155.55 Q 296.3 156.65 296.35 156.8 Q 295.9 156.8 295.5 156.4 Q 295.05 155.95 295.1 155.6" fill="#FFFFFF" stroke-width="1" stroke-linejoin="round" stroke-linecap="round" stroke="#000000"/>
		<path d="M 294.55 156.5 Q 294.65 156.7 294.85 156.85 Q 296.3 157.05 296.3 157.1 Q 294.75 157.65 294.55 156.5" fill="#FFFFFF" stroke-width="1" stroke-linejoin="round" stroke-linecap="round" stroke="#000000"/>
		<path d="M 294.5 155.9 Q 294.55 155.15 295.2 154.85 Q 294.7 155.7 294.5 155.9" fill="#FFFFFF" stroke-width="1" stroke-linejoin="round" stroke-linecap="round" stroke="#000000"/>
		<path d="M 294.2 154.95 Q 294.2 154.8 294.25 154.7 Q 294.75 154.75 294.2 154.95" fill="#FFFFFF" stroke-width="1" stroke-linejoin="round" stroke-linecap="round" stroke="#000000"/>
		<path d="M 294.05 154.995 Q 294.405 154.86 294.69 154.845 Q 294.32 156.145 294.32 156.165 Q 294.07 155.45 294.05 154.995" fill="#FFFFFF" stroke-width="1" stroke-linejoin="round" stroke-linecap="round" stroke="#000000"/>
		<path d="M 293.7 155.1 Q 293.965 155.12 294.17 155.25 Q 294.195 156.51 294.265 156.43 Q 293.775 155.94 293.7 155.1" fill="#FFFFFF" stroke-width="1" stroke-linejoin="round" stroke-linecap="round" stroke="#000000"/>
		<path d="M 293.85 155.055 Q 294.165 155.235 294.325 155.605 Q 294.435 156.69 294.635 156.92 Q 294.12 156.875 294 156.78 Q 293.595 156.145 293.85 155.055" fill="#FFFFFF" stroke-width="1" stroke-linejoin="round" stroke-linecap="round" stroke="#000000"/>
		<path d="M 294.25 156.8 Q 294.25 156.5 294.3 156.3 Q 295.85 157.65 295.4 157.65 Q 294.3 157.35 294.25 156.8" fill="#FFFFFF" stroke-width="1" stroke-linejoin="round" stroke-linecap="round" stroke="#000000"/>
		<path d="M 294.65 157.55 Q 295 157.65 295.4 157.65 Q 294.85 157.65 294.65 157.55" fill="#FFFFFF" stroke-width="1" stroke-linejoin="round" stroke-linecap="round" stroke="#000000"/>
	</g>
</svg>
