<?xml version="1.0"?>
<!DOCTYPE svg PUBLIC "-//W3C//DTD SVG 1.1//EN" "http://www.w3.org/Graphics/SVG/1.1/DTD/svg11.dtd">
<svg version='1.1' width='75px' height='12px' xmlns='http://www.w3.org/2000/svg' xmlns:xlink='http://www.w3.org/1999/xlink'>
	<g transform="translate(-236.604,-151.48)">
		<path d="M 236.825 156.725 Q 237.875 154.575 243.2 153.75 Q 248.5 152.9 253.2 153.575 Q 257.875 154.225 258.8 157 Q 259.7 159.75 259.55 161.125 Q 259.375 162.5 256.075 162.525 Q 252.775 162.525 248.425 161.9 Q 244.05 161.3 239.9 160.075 Q 235.75 158.85 236.825 156.725" fill="none" stroke-width="1" stroke-linejoin="round" stroke-linecap="round" stroke="#000000"/>
		<path d="M 236.825 156.725 Q 237.875 154.575 243.2 153.75 Q 248.5 152.9 253.2 153.575 Q 257.875 154.225 258.8 157 Q 259.7 159.75 259.55 161.125 Q 259.375 162.5 256.075 162.525 Q 252.775 162.525 248.425 161.9 Q 244.05 161.3 239.9 160.075 Q 235.75 158.85 236.825 156.725" fill="#FFFFFF" stroke-width="1" stroke-linejoin="round" stroke-linecap="round" stroke="#000000"/>
		<path d="M 249.35 157.05 Q 249.3 156.8 249.6 156.5 Q 251.5 155.65 251.7 155.7 Q 252.3 155.95 252.65 156.3 Q 253.3 156.4 253.4 156.85 Q 253.85 157.15 253.85 157.85 Q 254.35 158.5 254.35 159.3 Q 253.3 160.1 251.8 159.85 Q 251.2 159.8 251.25 159.05 Q 248.85 159.5 249.35 157.05" fill="#FFFFFF" stroke-width="1" stroke-linejoin="round" stroke-linecap="round" stroke="#000000"/>
		<path d="M 251.25 159.05 Q 251.85 158.95 252.05 158.4 Q 253.85 158 253.85 157.85 Q 254.35 158.5 254.35 159.3 Q 253.3 160.1 251.8 159.85 Q 251.2 159.8 251.25 159.05" fill="#FFFFFF" stroke-width="1" stroke-linejoin="round" stroke-linecap="round" stroke="#000000"/>
		<path d="M 252.4 158.55 Q 253.95 158.85 253.45 157.4 Q 252.55 158.65 252.4 158.55" fill="#FFFFFF" stroke-width="1" stroke-linejoin="round" stroke-linecap="round" stroke="#000000"/>
		<path d="M 253.4 156.85 Q 253.45 157.05 253.45 157.4 Q 253.85 157.15 253.4 156.85" fill="#FFFFFF" stroke-width="1" stroke-linejoin="round" stroke-linecap="round" stroke="#000000"/>
		<path d="M 250.65 156.5 Q 250.6 156.05 251 155.8 Q 250.75 156.25 250.75 156.5 Q 250.7 156.5 250.65 156.5" fill="#FFFFFF" stroke-width="1" stroke-linejoin="round" stroke-linecap="round" stroke="#000000"/>
		<path d="M 249.35 157.05 Q 249.3 156.8 249.6 156.5 Q 251.1 155.7 251 155.8 Q 250.3 156.55 250.2 156.7 Q 249.75 156.75 249.35 157.05" fill="#FFFFFF" stroke-width="1" stroke-linejoin="round" stroke-linecap="round" stroke="#000000"/>
		<path d="M 251.1 157.55 Q 251.3 157.45 251.4 157.3 Q 251.5 157.95 251.2 157.95 L 251.15 157.9 Q 251.05 157.75 251.1 157.55" fill="#FFFFFF" stroke-width="1" stroke-linejoin="round" stroke-linecap="round" stroke="#000000"/>
		<path d="M 251.8 157.85 Q 251.95 157.8 252.1 157.65 Q 251.8 157.95 251.8 157.85" fill="#FFFFFF" stroke-width="1" stroke-linejoin="round" stroke-linecap="round" stroke="#000000"/>
		<path d="M 252.5 156.65 Q 252.7 156.65 252.95 156.65 Q 252.6 156.75 252.5 156.65" fill="#FFFFFF" stroke-width="1" stroke-linejoin="round" stroke-linecap="round" stroke="#000000"/>
		<path d="M 252.2 158.25 Q 252.3 158.25 252.45 158.2 Q 253.15 157.3 252.95 156.65 Q 253.95 158.85 252.4 158.55 Q 252.25 158.35 252.2 158.25" fill="#FFFFFF" stroke-width="1" stroke-linejoin="round" stroke-linecap="round" stroke="#000000"/>
		<path d="M 249.35 157.05 Q 249.75 156.75 250.2 156.7 Q 250.7 157.85 250.7 157.9 Q 251.1 158.2 251.15 158.35 Q 250.95 158.4 250.8 158.6 Q 250.7 158.75 250.4 158.75 Q 249.65 158.7 249.5 157.9 Q 249.45 157.5 249.35 157.05" fill="#FFFFFF" stroke-width="1" stroke-linejoin="round" stroke-linecap="round" stroke="#000000"/>
		<path d="M 249.35 157.05 Q 249.45 157.5 249.5 157.9 Q 250.95 158.4 251.15 158.35 Q 251.2 158.7 251.25 159.05 Q 248.85 159.5 249.35 157.05" fill="#FFFFFF" stroke-width="1" stroke-linejoin="round" stroke-linecap="round" stroke="#000000"/>
		<path d="M 285.05 158.85 Q 285.75 154.9 288.5 153.05 Q 291.2 151.15 298.6 151.55 Q 306 151.95 309.25 153.25 Q 312.45 154.5 310.175 155.875 Q 307.875 157.225 305.2 159.475 Q 302.5 161.725 297.125 161.725 Q 291.675 161.675 288.025 162.25 Q 284.35 162.8 285.05 158.85" fill="none" stroke-width="1" stroke-linejoin="round" stroke-linecap="round" stroke="#000000"/>
		<path d="M 285.05 158.85 Q 285.75 154.9 288.5 153.05 Q 291.2 151.15 298.6 151.55 Q 306 151.95 309.25 153.25 Q 312.45 154.5 310.175 155.875 Q 307.875 157.225 305.2 159.475 Q 302.5 161.725 297.125 161.725 Q 291.675 161.675 288.025 162.25 Q 284.35 162.8 285.05 158.85" fill="#FFFFFF" stroke-width="1" stroke-linejoin="round" stroke-linecap="round" stroke="#000000"/>
		<path d="M 293.7 155.1 Q 293.85 155 294 154.85 Q 295.7 154.7 295.95 154.7 Q 296.55 154.55 296.8 154.55 Q 297.5 155.6 297.05 156.55 Q 296.95 156.7 296.8 156.85 Q 296.7 157 296.45 157 Q 296.35 157.1 296.25 157.2 Q 296.05 157.8 295.1 157.7 Q 294.85 157.65 294.65 157.55 Q 293.25 157.2 293.7 155.1" fill="#FFFFFF" stroke-width="1" stroke-linejoin="round" stroke-linecap="round" stroke="#000000"/>
		<path d="M 295.55 154.75 Q 295.7 154.7 295.95 154.7 Q 297.5 155.6 297.05 156.55 Q 296.8 154.95 295.8 154.95 Q 295.65 154.85 295.55 154.75" fill="#FFFFFF" stroke-width="1" stroke-linejoin="round" stroke-linecap="round" stroke="#000000"/>
		<path d="M 295.8 154.95 Q 296 155.15 296.2 155.4 Q 296.8 154.95 295.8 154.95" fill="#FFFFFF" stroke-width="1" stroke-linejoin="round" stroke-linecap="round" stroke="#000000"/>
		<path d="M 295.55 155 Q 295.6 154.95 295.65 154.95 Q 296.6 156.05 296.65 156.15 Q 295.85 155.2 295.55 155" fill="#FFFFFF" stroke-width="1" stroke-linejoin="round" stroke-linecap="round" stroke="#000000"/>
		<path d="M 295.275 155.75 Q 295.3 155.75 295.35 155.75 Q 296.15 156.725 296.35 156.8 Q 296.225 156.8 296.1 156.7 Q 296.075 156.675 296.05 156.65 Q 295.85 156.55 295.7 156.425 Q 295.575 156.3 295.5 156.15 Q 295.425 155.9 295.275 155.75" fill="#FFFFFF" stroke-width="1" stroke-linejoin="round" stroke-linecap="round" stroke="#000000"/>
		<path d="M 295.275 155.75 Q 295.3 155.75 295.35 155.75 Q 296.15 156.725 296.35 156.8 Q 296.225 156.8 296.1 156.7 Q 296.075 156.675 296.05 156.65 Q 295.85 156.55 295.7 156.425 Q 295.575 156.3 295.5 156.15 Q 295.425 155.925 295.325 155.75 L 295.275 155.75" fill="#FFFFFF" stroke-width="1" stroke-linejoin="round" stroke-linecap="round" stroke="#000000"/>
		<path d="M 295.1 155.6 Q 295.25 155.55 295.4 155.55 Q 296.3 156.65 296.35 156.8 Q 295.9 156.8 295.5 156.4 Q 295.05 155.95 295.1 155.6" fill="#FFFFFF" stroke-width="1" stroke-linejoin="round" stroke-linecap="round" stroke="#000000"/>
		<path d="M 294.55 156.5 Q 294.65 156.7 294.85 156.85 Q 296.3 157.05 296.3 157.1 Q 294.75 157.65 294.55 156.5" fill="#FFFFFF" stroke-width="1" stroke-linejoin="round" stroke-linecap="round" stroke="#000000"/>
		<path d="M 294.5 155.9 Q 294.55 155.15 295.2 154.85 Q 294.7 155.7 294.5 155.9" fill="#FFFFFF" stroke-width="1" stroke-linejoin="round" stroke-linecap="round" stroke="#000000"/>
		<path d="M 294.2 154.95 Q 294.2 154.8 294.25 154.7 Q 294.75 154.75 294.2 154.95" fill="#FFFFFF" stroke-width="1" stroke-linejoin="round" stroke-linecap="round" stroke="#000000"/>
		<path d="M 293.95 155.025 Q 294.275 154.9 294.55 154.875 Q 294.3 156.175 294.3 156.175 Q 294.05 155.45 293.95 155.025" fill="#FFFFFF" stroke-width="1" stroke-linejoin="round" stroke-linecap="round" stroke="#000000"/>
		<path d="M 293.7 155.1 Q 293.975 155.2 294.15 155.45 Q 294.225 156.75 294.375 156.75 Q 293.625 156.3 293.7 155.1" fill="#FFFFFF" stroke-width="1" stroke-linejoin="round" stroke-linecap="round" stroke="#000000"/>
		<path d="M 293.95 155.025 Q 294.275 155.125 294.475 155.375 Q 294.525 156.25 294.625 156.5 Q 294.2 156.625 294.1 156.6 Q 293.725 155.975 293.95 155.025" fill="#FFFFFF" stroke-width="1" stroke-linejoin="round" stroke-linecap="round" stroke="#000000"/>
		<path d="M 294.25 156.8 Q 294.25 156.5 294.3 156.3 Q 295.85 157.65 295.4 157.65 Q 294.3 157.35 294.25 156.8" fill="#FFFFFF" stroke-width="1" stroke-linejoin="round" stroke-linecap="round" stroke="#000000"/>
		<path d="M 294.65 157.55 Q 295 157.65 295.4 157.65 Q 294.85 157.65 294.65 157.55" fill="#FFFFFF" stroke-width="1" stroke-linejoin="round" stroke-linecap="round" stroke="#000000"/>
	</g>
</svg>
